<svg width="21" height="21" viewBox="0 0 21 21" fill="none" xmlns="http://www.w3.org/2000/svg">
<path d="M6.60639 19.1588C14.529 19.1588 18.8635 12.5935 18.8635 6.90172C18.8635 6.71715 18.8594 6.52848 18.8512 6.34391C19.6944 5.73412 20.4221 4.97882 21 4.11348C20.2147 4.46287 19.3809 4.69105 18.5272 4.79024C19.4261 4.25139 20.0992 3.40488 20.4217 2.40764C19.576 2.90883 18.6511 3.26238 17.6868 3.45313C17.037 2.76271 16.1779 2.30557 15.2422 2.15239C14.3066 1.99921 13.3465 2.15851 12.5105 2.60568C11.6745 3.05284 11.0091 3.76296 10.6171 4.62624C10.2252 5.48952 10.1285 6.45788 10.3421 7.3816C8.62968 7.29567 6.95444 6.85083 5.42498 6.07593C3.89552 5.30102 2.54598 4.21335 1.46385 2.88342C0.91385 3.83168 0.745549 4.95378 0.993152 6.02167C1.24075 7.08956 1.88568 8.02311 2.79686 8.63258C2.1128 8.61086 1.44373 8.42669 0.844922 8.09527V8.14859C0.844309 9.14372 1.18834 10.1084 1.81852 10.8785C2.44871 11.6487 3.32616 12.1768 4.30172 12.3732C3.66805 12.5466 3.00298 12.5718 2.35799 12.447C2.63327 13.3028 3.16888 14.0514 3.89005 14.5881C4.61122 15.1249 5.48198 15.4231 6.3808 15.4412C4.85487 16.6398 2.9699 17.2899 1.02949 17.2869C0.685376 17.2863 0.341599 17.2653 0 17.2237C1.97125 18.4884 4.26434 19.16 6.60639 19.1588Z" fill="#67788A"/>
</svg>
