<svg version="1.2" xmlns="http://www.w3.org/2000/svg" xmlns:xlink="http://www.w3.org/1999/xlink" overflow="visible" preserveAspectRatio="none" viewBox="0 0 66 66" id="Layer_1" width="80" height="80"><g transform="translate(1, 1)"><path style="fill:#c52228" d="M24.43,53.5H20.88l-.79-38H42.74v11a.5.5,0,0,0,.5.5.5.5,0,0,0,.5-.5v-11h2.73A.5.5,0,0,0,47,15V12a.51.51,0,0,0-.5-.5H43.14l-23.63-4h-3l-.12,0-.07,0-.05,0-6.35,4,0,0-.07.07,0,.07a.45.45,0,0,0-.06.19s0,0,0,0v3a.5.5,0,0,0,.5.5h5.69l-.79,38H11.51a.52.52,0,0,0-.36.14A.54.54,0,0,0,11,54v2a.5.5,0,0,0,.5.5H24.43a.51.51,0,0,0,.5-.5V54A.5.5,0,0,0,24.43,53.5ZM20,11.53l-.06-2.94,17.24,2.94Zm-1.06-3,.06,3H16.94l.06-3Zm-3,3H11.88L16,8.92Zm-5.28,1H46v2H10.66Zm6.19,3h2.24l.79,38H16.06Zm7.08,40H12v-1H23.93Z" vector-effect="non-scaling-stroke"/><path style="fill:#c52228" d="M43.24,28.54a11.1,11.1,0,1,0,11.1,11.1A11.1,11.1,0,0,0,43.24,28.54Zm8.65,16.93A11,11,0,0,1,50.62,47a10.4,10.4,0,0,1-1.54,1.27,10.49,10.49,0,0,1-5.84,1.78,10.3,10.3,0,0,1-4.06-.82A10.42,10.42,0,0,1,35.87,47a11.84,11.84,0,0,1-1.28-1.55,10.81,10.81,0,0,1-1-1.77,10.46,10.46,0,0,1,0-8.12,10.81,10.81,0,0,1,1-1.77,11.84,11.84,0,0,1,1.28-1.55,10.4,10.4,0,0,1,7.37-3A10.49,10.49,0,0,1,49.08,31a10.4,10.4,0,0,1,1.54,1.27,11,11,0,0,1,1.27,1.55,10.86,10.86,0,0,1,1,1.77,10.46,10.46,0,0,1,0,8.12A10.86,10.86,0,0,1,51.89,45.47Z" vector-effect="non-scaling-stroke"/><path style="fill:#c52228" d="M51.42,36.15a8.7,8.7,0,0,1-.7,3.32l-2.83,8.16A9.25,9.25,0,0,0,51.36,35.2,7.12,7.12,0,0,1,51.42,36.15Z" vector-effect="non-scaling-stroke"/><path style="fill:#c52228" d="M34,39.64A9.24,9.24,0,0,0,39.21,48L34.8,35.88A9.09,9.09,0,0,0,34,39.64Z" vector-effect="non-scaling-stroke"/><path style="fill:#c52228" d="M43.41,40.45l-2.78,8.06a9.41,9.41,0,0,0,2.61.38,9.27,9.27,0,0,0,3.08-.53.75.75,0,0,1-.07-.12Z" vector-effect="non-scaling-stroke"/><path style="fill:#c52228" d="M49.49,39.17a4.81,4.81,0,0,0-.77-2.55,4.36,4.36,0,0,1-.9-2.17,1.6,1.6,0,0,1,1.55-1.64h.12a9.24,9.24,0,0,0-14,1.74h.59c1,0,2.47-.12,2.47-.12a.39.39,0,0,1,.06.77s-.5.06-1.06.08l3.37,10,2-6.07-1.44-4c-.5,0-1-.08-1-.08a.39.39,0,0,1,.06-.77s1.52.12,2.43.12,2.47-.12,2.47-.12a.39.39,0,0,1,.06.77s-.5.06-1.06.08l3.34,9.94,1-3A10.52,10.52,0,0,0,49.49,39.17Z" vector-effect="non-scaling-stroke"/></g></svg>