<svg id="Layer_1" data-name="Layer 1" xmlns="http://www.w3.org/2000/svg" viewBox="0 0 64 64" width="64" height="64">
    <path d="M9.31,29h3.4l-.53,2a1.28,1.28,0,0,1-.45.68,1.23,1.23,0,0,1-.77.25H9.38a1.51,1.51,0,0,0-1,.32,1.7,1.7,0,0,0-.58.86,1.51,1.51,0,0,0,0,.76,1.75,1.75,0,0,0,.29.65,1.56,1.56,0,0,0,.54.44,1.58,1.58,0,0,0,.72.16h1a.56.56,0,0,1,.44.22.54.54,0,0,1,.09.49L10.28,38h-1a4.24,4.24,0,0,1-2-.47,4.51,4.51,0,0,1-1.51-1.26,4.34,4.34,0,0,1-.82-1.78,4.45,4.45,0,0,1,.06-2L5,32.23a4.34,4.34,0,0,1,.61-1.33,4.62,4.62,0,0,1,1-1,4.44,4.44,0,0,1,1.26-.66A4.12,4.12,0,0,1,9.31,29Z" style="fill:#c52228"></path>
    <path d="M11,38l3-11.1a1.28,1.28,0,0,1,.45-.68A1.21,1.21,0,0,1,15.2,26h3.15a4.21,4.21,0,0,1,2,.48,4.45,4.45,0,0,1,2.34,3,4.2,4.2,0,0,1-.06,2.05l-.06.22a4.51,4.51,0,0,1-.6,1.34,4.65,4.65,0,0,1-1,1,4.3,4.3,0,0,1-1.25.67,4.35,4.35,0,0,1-1.44.24H15.57l.54-2a1.27,1.27,0,0,1,.45-.66,1.21,1.21,0,0,1,.77-.25h.87a1.47,1.47,0,0,0,1-.34,1.51,1.51,0,0,0,.57-.85,1.55,1.55,0,0,0,0-.74,2,2,0,0,0-.29-.64,1.52,1.52,0,0,0-.55-.45,1.41,1.41,0,0,0-.71-.18H16.51L14.32,37.1a1.27,1.27,0,0,1-.45.66,1.21,1.21,0,0,1-.76.26Z" style="fill:#c52228"></path>
    <path d="M29.78,32.09l0-.17a.2.2,0,0,0,0-.2.24.24,0,0,0-.19-.08H24.7a1.26,1.26,0,0,1-1-.49,1.24,1.24,0,0,1-.22-.51,1.31,1.31,0,0,1,0-.59l.3-1.14h6.62a2.39,2.39,0,0,1,1.13.27,2.53,2.53,0,0,1,.84.71,2.51,2.51,0,0,1,.45,2.17l-1.19,4.42a2,2,0,0,1-.73,1.09,2,2,0,0,1-1.26.43l-4.89,0a2.48,2.48,0,0,1-1.18-.28A2.58,2.58,0,0,1,22.7,37a2.66,2.66,0,0,1-.48-1.05,2.48,2.48,0,0,1,0-1.21l.06-.23a2.49,2.49,0,0,1,.35-.78,2.86,2.86,0,0,1,.58-.62,2.5,2.5,0,0,1,.74-.39,2.41,2.41,0,0,1,.85-.15h4.11l-.3,1.13a1.27,1.27,0,0,1-.45.66,1.2,1.2,0,0,1-.75.26H25.6a.31.31,0,0,0-.33.25.3.3,0,0,0,.06.29.32.32,0,0,0,.27.13h3a.48.48,0,0,0,.29-.09.38.38,0,0,0,.15-.24l0-.12Z" style="fill:#c52228"></path>
    <path d="M38.53,29a4.19,4.19,0,0,1,2,.47,4.55,4.55,0,0,1,1.52,1.26,4.45,4.45,0,0,1,.82,1.79,4.37,4.37,0,0,1-.07,2.06l-.75,2.82a.9.9,0,0,1-.32.49.93.93,0,0,1-.55.18H39.55a.52.52,0,0,1-.45-.22.54.54,0,0,1-.09-.49l.9-3.42a1.39,1.39,0,0,0,0-.73,1.62,1.62,0,0,0-.29-.64,1.62,1.62,0,0,0-1.26-.63H36.7l-1.46,5.46a.9.9,0,0,1-.32.49,1,1,0,0,1-.57.18H32.74a.57.57,0,0,1-.54-.71L34.43,29Z" style="fill:#c52228"></path>
    <path d="M47.39,31.81a.76.76,0,0,0-.26.37l-.67,2.56a.42.42,0,0,0,.07.39.43.43,0,0,0,.36.18h6.23l-.48,1.79a1.23,1.23,0,0,1-.46.66,1.2,1.2,0,0,1-.75.26H45.76a2.51,2.51,0,0,1-2-1,2.6,2.6,0,0,1-.47-1,2.36,2.36,0,0,1,0-1.15l.92-3.41a3.39,3.39,0,0,1,.47-1,3.33,3.33,0,0,1,.74-.8,3.41,3.41,0,0,1,1-.52A3.45,3.45,0,0,1,47.56,29h4a2.39,2.39,0,0,1,1.13.27A2.5,2.5,0,0,1,54,30.94a2.53,2.53,0,0,1,0,1.16l-.27,1A2,2,0,0,1,53,34.21a2,2,0,0,1-1.24.41H47.2l.3-1.11a1.18,1.18,0,0,1,.43-.66,1.23,1.23,0,0,1,.77-.26h1.83a.31.31,0,0,0,.33-.25l.06-.23a.33.33,0,0,0-.06-.3.33.33,0,0,0-.27-.14h-2.8A.65.65,0,0,0,47.39,31.81Z" style="fill:#c52228"></path>
    <path d="M53.1,38l3-11.36a.9.9,0,0,1,.32-.49A.86.86,0,0,1,57,26h1.61a.52.52,0,0,1,.45.22.52.52,0,0,1,.1.49l-2.25,8.38a3.63,3.63,0,0,1-.54,1.2,4.06,4.06,0,0,1-.87.93,4.46,4.46,0,0,1-1.12.6A3.72,3.72,0,0,1,53.1,38Z" style="fill:#c52228"></path>
</svg>