<svg version="1.2" xmlns="http://www.w3.org/2000/svg" xmlns:xlink="http://www.w3.org/1999/xlink" overflow="visible" preserveAspectRatio="none" viewBox="0 0 66 66" id="Layer_1_1569956180936" width="80" height="80"><g transform="translate(1, 1)"><path style="fill:#c52228" d="M29.38,48a3.39,3.39,0,1,0,4.79,0A3.39,3.39,0,0,0,29.38,48Zm4.08,4.08a2.38,2.38,0,1,1-3.37-3.37,2.38,2.38,0,0,1,3.37,0A2.38,2.38,0,0,1,33.46,52.12Z" vector-effect="non-scaling-stroke"/><path style="fill:#c52228" d="M60.78,61h-3.5V59.8a3,3,0,0,0,2.55-3,1.15,1.15,0,0,0-1.15-1.15h-1.4V54a.5.5,0,0,0-.5-.5H55.25a2.68,2.68,0,0,0-.83-1.36,1.41,1.41,0,0,1,0-2.31,2.44,2.44,0,0,0,.9-1.86.5.5,0,0,0-.5-.5.5.5,0,0,0-.5.5,1.48,1.48,0,0,1-.61,1.15,2.39,2.39,0,0,0,0,3.72,2.26,2.26,0,0,1,.5.66h-2a2.68,2.68,0,0,0-.83-1.36,1.41,1.41,0,0,1,0-2.31,2.44,2.44,0,0,0,.9-1.86.5.5,0,0,0-.5-.5.5.5,0,0,0-.5.5,1.48,1.48,0,0,1-.61,1.15,2.39,2.39,0,0,0,0,3.72,2.26,2.26,0,0,1,.5.66H48.78V39.36a.5.5,0,0,0-.5-.5h-33a.5.5,0,0,0-.5.5V61h-4.5V43.59a8.1,8.1,0,0,1,8.09-8.09h4.05a5.36,5.36,0,0,0,5.36-5.36v-.88a10.52,10.52,0,0,0,8,0v.88a5.37,5.37,0,0,0,5.37,5.36h4a8.09,8.09,0,0,1,8.08,8.09.5.5,0,0,0,1,0,9.09,9.09,0,0,0-9.08-9.09h-4a4.37,4.37,0,0,1-4.37-4.36V28.8a10.73,10.73,0,0,0,2.92-2.3h1a3.7,3.7,0,0,0,3.67-3.26,2.5,2.5,0,0,0,2.05-2.46V16.14A14.15,14.15,0,0,0,32.28,2h-1A14.15,14.15,0,0,0,17.13,16.14v4.64a2.49,2.49,0,0,0,4.43,1.58,10.63,10.63,0,0,0,5.21,6.43v1.35a4.37,4.37,0,0,1-4.36,4.36H18.36a9.1,9.1,0,0,0-9.09,9.09V61H5.77a.5.5,0,1,0,0,1h55a.5.5,0,0,0,0-1ZM40.7,25.5h-.21A10.57,10.57,0,0,0,42,22.36a2.5,2.5,0,0,0,1.39.86A2.72,2.72,0,0,1,40.7,25.5Zm4.72-4.72a1.5,1.5,0,0,1-3,0V16.2a1.5,1.5,0,0,1,3,0v4.58ZM31.27,3h1a13.15,13.15,0,0,1,13,11.09,2.46,2.46,0,0,0-1.32-.39,2.51,2.51,0,0,0-1.67.65A10.15,10.15,0,0,0,32.28,6h-1a10.15,10.15,0,0,0-10,8.35,2.51,2.51,0,0,0-1.67-.65,2.46,2.46,0,0,0-1.32.39A13.15,13.15,0,0,1,31.27,3ZM21.13,20.78a1.5,1.5,0,0,1-3,0V16.2a1.5,1.5,0,0,1,3,0v4.58Zm1-1.37V16.14A9.15,9.15,0,0,1,31.27,7h1a9.15,9.15,0,0,1,9.14,9.14v3.27a9.58,9.58,0,0,1-2.18,6.09h-3a.5.5,0,0,0,0,1h2a9.63,9.63,0,0,1-16.16-7.09ZM58.68,56.65a.15.15,0,0,1,.15.15,2.06,2.06,0,0,1-1.55,2V56.65ZM15.77,39.86h32V61h-32ZM48.78,61V54.5h7.5V61Z" vector-effect="non-scaling-stroke"/><path style="fill:#c52228" d="M27.21,18.1A2.52,2.52,0,0,0,25,19.42a.5.5,0,0,0,.88.48,1.51,1.51,0,0,1,1.33-.8,1.46,1.46,0,0,1,1.31.8.51.51,0,0,0,.45.27.5.5,0,0,0,.44-.73A2.45,2.45,0,0,0,27.21,18.1Z" vector-effect="non-scaling-stroke"/><path style="fill:#c52228" d="M36.35,18.1a2.52,2.52,0,0,0-2.21,1.32.5.5,0,1,0,.88.48,1.53,1.53,0,0,1,1.33-.8,1.49,1.49,0,0,1,1.32.8.5.5,0,0,0,.44.27.46.46,0,0,0,.23-.06.5.5,0,0,0,.22-.67A2.47,2.47,0,0,0,36.35,18.1Z" vector-effect="non-scaling-stroke"/><path style="fill:#c52228" d="M36.9,14.6h2a.5.5,0,0,0,.5-.5.5.5,0,0,0-.5-.5h-2a5,5,0,0,1-4.47-2.82A.51.51,0,0,0,32,10.5a.55.55,0,0,0-.45.29,5,5,0,0,1-4.47,2.81H24.69a.5.5,0,0,0-.5.5.5.5,0,0,0,.5.5h2.37A6,6,0,0,0,32,12,6,6,0,0,0,36.9,14.6Z" vector-effect="non-scaling-stroke"/><path style="fill:#c52228" d="M33.58,26.5a.5.5,0,0,0,0-1H32a.5.5,0,0,0,0,1Z" vector-effect="non-scaling-stroke"/></g></svg>