<svg id="Layer_1" data-name="Layer 1" xmlns="http://www.w3.org/2000/svg" viewBox="0 0 64 64"><path d="M61.57,27.7H46.71a.5.5,0,0,0-.5.5.51.51,0,0,0,.5.5H61.07V61.07H28.7V46.37a.5.5,0,0,0-.5-.5.5.5,0,0,0-.5.5v15.2a.5.5,0,0,0,.5.5H61.57a.51.51,0,0,0,.5-.5V28.2A.5.5,0,0,0,61.57,27.7Z" style="fill:#c52228"/><path d="M19.82,35.3h-1.5a.5.5,0,0,0-.5.5.5.5,0,0,0,.5.5h1.5a.5.5,0,0,0,.5-.5A.51.51,0,0,0,19.82,35.3Z" style="fill:#c52228"/><path d="M12.56,35.3H9.69a.5.5,0,0,0-.5.5.5.5,0,0,0,.5.5h2.87a.5.5,0,0,0,.5-.5A.5.5,0,0,0,12.56,35.3Z" style="fill:#c52228"/><path d="M3.93,35.3h-1v-1a.5.5,0,0,0-.5-.5.51.51,0,0,0-.5.5v1.5a.5.5,0,0,0,.5.5h1.5a.5.5,0,0,0,.5-.5A.5.5,0,0,0,3.93,35.3Z" style="fill:#c52228"/><path d="M2.43,29.28a.5.5,0,0,0,.5-.5V26a.5.5,0,0,0-.5-.5.51.51,0,0,0-.5.5v2.76A.5.5,0,0,0,2.43,29.28Z" style="fill:#c52228"/><path d="M2.43,21a.5.5,0,0,0,.5-.5V17.74a.5.5,0,0,0-.5-.5.5.5,0,0,0-.5.5V20.5A.5.5,0,0,0,2.43,21Z" style="fill:#c52228"/><path d="M2.43,12.72a.5.5,0,0,0,.5-.5V9.46a.5.5,0,0,0-.5-.5.5.5,0,0,0-.5.5v2.76A.51.51,0,0,0,2.43,12.72Z" style="fill:#c52228"/><path d="M3.93,1.93H2.43a.51.51,0,0,0-.5.5v1.5a.5.5,0,0,0,.5.5.5.5,0,0,0,.5-.5v-1h1a.5.5,0,0,0,.5-.5A.5.5,0,0,0,3.93,1.93Z" style="fill:#c52228"/><path d="M17.74,2.93H20.5a.5.5,0,0,0,.5-.5.5.5,0,0,0-.5-.5H17.74a.5.5,0,0,0-.5.5A.5.5,0,0,0,17.74,2.93Z" style="fill:#c52228"/><path d="M26,2.93h2.76a.5.5,0,0,0,.5-.5.5.5,0,0,0-.5-.5H26a.51.51,0,0,0-.5.5A.5.5,0,0,0,26,2.93Z" style="fill:#c52228"/><path d="M12.22,2.93a.5.5,0,0,0,.5-.5.51.51,0,0,0-.5-.5H9.46a.5.5,0,0,0-.5.5.5.5,0,0,0,.5.5Z" style="fill:#c52228"/><path d="M34.3,2.93h1v1a.5.5,0,0,0,.5.5.5.5,0,0,0,.5-.5V2.43a.5.5,0,0,0-.5-.5H34.3a.51.51,0,0,0-.5.5A.5.5,0,0,0,34.3,2.93Z" style="fill:#c52228"/><path d="M36.3,8.55a.5.5,0,0,0-.5-.5.5.5,0,0,0-.5.5v2.31a.51.51,0,0,0,.5.5.5.5,0,0,0,.5-.5Z" style="fill:#c52228"/><path d="M35.8,15a.51.51,0,0,0-.5.5V17a.5.5,0,0,0,.5.5.5.5,0,0,0,.5-.5v-1.5A.5.5,0,0,0,35.8,15Z" style="fill:#c52228"/><path d="M33.06,43.71A10.93,10.93,0,0,0,36.84,43L37,43a10.84,10.84,0,0,0,6.74-7.91,11,11,0,0,0-3-10.13l-3.66-3.66a2.8,2.8,0,0,0-3.83-.19,2.74,2.74,0,0,0-.9,1.9,2.77,2.77,0,0,0-2.92.08,2.73,2.73,0,0,0-1.16,2v.1a2.7,2.7,0,0,0-4.09,2.25h0a2.69,2.69,0,0,0-4,2.15A2.72,2.72,0,0,0,21,31.75l2.51,2.51A6.9,6.9,0,0,0,27,41.94l1.73.9A11.11,11.11,0,0,0,33.06,43.71Zm-8.71-8.58,3.15,3.14a.5.5,0,0,0,.71,0,.51.51,0,0,0,0-.71l-3.79-3.79,0,0L21.69,31a1.72,1.72,0,0,1-.5-1.36,1.69,1.69,0,0,1,.74-1.27,1.8,1.8,0,0,1,2.28.29l.73.73,2.32,2.32a.5.5,0,0,0,.35.15.51.51,0,0,0,.36-.15A.51.51,0,0,0,28,31l-2.32-2.32a1.64,1.64,0,0,1-.5-1.26,1.69,1.69,0,0,1,.57-1.24,1.8,1.8,0,0,1,2.45.16l.86.86,1.84,1.84a.51.51,0,0,0,.36.15.49.49,0,0,0,.35-.15.5.5,0,0,0,0-.71l-1.84-1.84A1.72,1.72,0,0,1,30,23.89a1.81,1.81,0,0,1,2.28.29l.86.86,1.37,1.37a.49.49,0,0,0,.35.15.51.51,0,0,0,.36-.15.5.5,0,0,0,0-.7l-1.38-1.38a1.72,1.72,0,0,1-.5-1.26,1.74,1.74,0,0,1,.57-1.24,1.83,1.83,0,0,1,2.46.16L40,25.64a10,10,0,0,1,2.72,9.22,9.84,9.84,0,0,1-6.12,7.19l.18.46-.29-.42a9.9,9.9,0,0,1-7.3-.16l-1.69-.88A5.91,5.91,0,0,1,24.35,35.13Z" style="fill:#c52228"/><path d="M18.62,22.12a.5.5,0,0,0,1,0v-2.5h2.5a.5.5,0,0,0,0-1h-2.5v-2.5a.5.5,0,1,0-1,0v2.5h-2.5a.5.5,0,1,0,0,1h2.5Z" style="fill:#c52228"/></svg>