<svg version="1.2" xmlns="http://www.w3.org/2000/svg" xmlns:xlink="http://www.w3.org/1999/xlink" overflow="visible" preserveAspectRatio="none" viewBox="0 0 66 66" id="Layer_1" width="80" height="80"><g transform="translate(1, 1)"><path style="fill:#c52228" d="M38.76,46.48V44.41a.5.5,0,0,0-.5-.5.5.5,0,0,0-.5.5V46H11.43V15H37.76v1.43a.5.5,0,0,0,.5.5.5.5,0,0,0,.5-.5V11.72A2.71,2.71,0,0,0,36.05,9H13.15a2.72,2.72,0,0,0-2.72,2.72V52.28A2.72,2.72,0,0,0,13.15,55h22.9a2.71,2.71,0,0,0,2.71-2.72V46.52s0,0,0,0S38.76,46.49,38.76,46.48ZM13.15,10h22.9a1.72,1.72,0,0,1,1.71,1.72V14H11.43V11.72A1.72,1.72,0,0,1,13.15,10Zm22.9,44H13.15a1.72,1.72,0,0,1-1.72-1.72V47H37.76v5.28A1.72,1.72,0,0,1,36.05,54Z" vector-effect="non-scaling-stroke"/><path style="fill:#c52228" d="M28,50h-6.7a.5.5,0,0,0,0,1H28a.5.5,0,1,0,0-1Z" vector-effect="non-scaling-stroke"/><path style="fill:#c52228" d="M21.65,12.52h2.7a.5.5,0,0,0,.5-.5.51.51,0,0,0-.5-.5h-2.7a.5.5,0,0,0-.5.5A.5.5,0,0,0,21.65,12.52Z" vector-effect="non-scaling-stroke"/><path style="fill:#c52228" d="M27.33,12.55a.74.74,0,0,0,0-1.06.75.75,0,1,0-1.06,1.06A.74.74,0,0,0,27.33,12.55Z" vector-effect="non-scaling-stroke"/><path style="fill:#c52228" d="M53.56,40.43s0,0,0,0v-20s0,0,0-.06,0-.07,0-.1a.41.41,0,0,0,0-.09s0,0,0-.05l0,0L53.36,20,53.29,20l-.09,0-.1,0H23.54l-.11,0-.08,0-.08.05-.08.07,0,0a.08.08,0,0,0,0,.05.41.41,0,0,0,0,.09.3.3,0,0,0,0,.1s0,0,0,.06v3.36H20.69a.5.5,0,0,0-.5.5.5.5,0,0,0,.5.5h2.38V28H16.64a.5.5,0,0,0,0,1h6.43v3.19H21.2a.5.5,0,0,0-.5.5.5.5,0,0,0,.5.5h1.87V36H18.24a.5.5,0,0,0-.5.5.5.5,0,0,0,.5.5h4.83v3.37a.36.36,0,0,0,0,.1.2.2,0,0,0,0,.07l.06.1,0,.06h0a.26.26,0,0,0,.1.07.51.51,0,0,0,.26.09h29.5a.48.48,0,0,0,.32-.13s0,0,0,0l0,0a.24.24,0,0,0,.06-.11l0,0A.41.41,0,0,0,53.56,40.43ZM43.45,31.56a.51.51,0,0,0-.71.06.49.49,0,0,0,.06.7l8.91,7.59H24.92l8.88-7.63a.51.51,0,0,0,.05-.71.49.49,0,0,0-.7-.05l-9.08,7.8V21.43L38,32a.47.47,0,0,0,.3.1.49.49,0,0,0,.3-.1l14-10.53V39.32ZM25.06,20.93H51.58l-13.26,10Z" vector-effect="non-scaling-stroke"/><path style="fill:#c52228" d="M18,33.17a.51.51,0,0,0,.5-.5.5.5,0,0,0-.5-.5H16.87a.5.5,0,0,0-.5.5.51.51,0,0,0,.5.5Z" vector-effect="non-scaling-stroke"/><path style="fill:#c52228" d="M15.39,36.18a.51.51,0,0,0-.54-.11.46.46,0,0,0-.16.11.42.42,0,0,0-.11.16.43.43,0,0,0,0,.19.45.45,0,0,0,0,.2.42.42,0,0,0,.11.16.64.64,0,0,0,.16.11A.58.58,0,0,0,15,37a.65.65,0,0,0,.19,0,.91.91,0,0,0,.16-.11.57.57,0,0,0,.11-.16.45.45,0,0,0,0-.2.43.43,0,0,0,0-.19A.57.57,0,0,0,15.39,36.18Z" vector-effect="non-scaling-stroke"/><path style="fill:#c52228" d="M17.48,24.79a.5.5,0,0,0,.5-.5.5.5,0,0,0-.5-.5h-1.6a.51.51,0,0,0-.5.5.5.5,0,0,0,.5.5Z" vector-effect="non-scaling-stroke"/></g></svg>