<svg version="1.2" xmlns="http://www.w3.org/2000/svg" xmlns:xlink="http://www.w3.org/1999/xlink" overflow="visible" preserveAspectRatio="none" viewBox="0 0 61.130001068115234 50.36000061035156" width="100" height="81"><g transform="translate(1, 1)"><defs><style>.cls-1_1605215620200{fill:#c52228;}.cls-2_1605215620200{fill:none;}</style></defs><g id="Layer_2_1605215620200"><g id="Layer_1-2_1605215620200"><path d="M7.94,17.36v0Zm0,0v0Zm0,0v0Zm0,0v0Zm0,0v0Zm0,0v0Zm0,0v0Zm0,0v0Zm0,0v0Zm0,0v0Z" class="cls-1_1605215620200" vector-effect="non-scaling-stroke"/><path d="M52.2,7.09a4.48,4.48,0,0,0-2.55-1.57,4.88,4.88,0,0,0-.93-.09H48V2.73H34.65A8.17,8.17,0,0,0,28.58,0H11.06A8.17,8.17,0,0,0,3.35,5.57,4.5,4.5,0,0,0,0,9.91V39.49A4.49,4.49,0,0,0,4.48,44H37.7c-.12-.15-.25-.3-.36-.46a.05.05,0,0,1,0,0,.65.65,0,0,1-.1-.49H4.48A3.5,3.5,0,0,1,1,39.49V9.91A3.52,3.52,0,0,1,3.83,6.47l.29,0,.08-.29A7.17,7.17,0,0,1,11.06,1H28.58a7.11,7.11,0,0,1,3.61,1A7,7,0,0,1,34,3.54a7.09,7.09,0,0,1,1.37,2.53l.11.35h13.2a3.45,3.45,0,0,1,.72.07,3.52,3.52,0,0,1,2.78,3.42V25.37a.6.6,0,0,1,.23.06l.26.14.5.27V9.91A4.5,4.5,0,0,0,52.2,7.09Zm-16-1.66a6.91,6.91,0,0,0-.33-.79,1.42,1.42,0,0,0-.08-.18l-.22-.4-.21-.35H47.05V5.43Z" class="cls-1_1605215620200" vector-effect="non-scaling-stroke"/><path d="M7.94,17.36v0Z" class="cls-1_1605215620200" vector-effect="non-scaling-stroke"/><path d="M16.28,5.41h-.81L6,17.19V18L5.89,38.62H30.12V5.43Zm-1.11,2.1.25,9.06-7.71.18Zm1.45,10.2L16.31,6.4l12.83,0V37.63H6.87L7,17.94" class="cls-1_1605215620200" vector-effect="non-scaling-stroke"/><path d="M58.51,32.45a.68.68,0,0,0-.7-.46l-1.49.14A10.82,10.82,0,0,0,55.7,31l1-1.16a.68.68,0,0,0,0-.84,12.48,12.48,0,0,0-1.91-2,11.17,11.17,0,0,0-1.57-1.11l-.5-.27-.26-.14a.6.6,0,0,0-.23-.06.66.66,0,0,0-.58.23l-1,1.16a11.28,11.28,0,0,0-1.25-.39l-.14-1.5a.68.68,0,0,0-.57-.61,12.25,12.25,0,0,0-5.5.5.67.67,0,0,0-.45.7l.13,1.5a11.54,11.54,0,0,0-1.16.6l-1.17-1a.69.69,0,0,0-.83,0,12.15,12.15,0,0,0-2,1.92,11.09,11.09,0,0,0-1.52,2.33.66.66,0,0,0,.17.81l1.16,1a9.94,9.94,0,0,0-.39,1.24L35.63,34a.67.67,0,0,0-.6.57,12,12,0,0,0,.49,5.51.67.67,0,0,0,.69.46l1.51-.14a10.7,10.7,0,0,0,.61,1.16l-1,1.16a.69.69,0,0,0-.14.3.65.65,0,0,0,.1.49.05.05,0,0,0,0,0c.11.16.24.31.36.46a11.35,11.35,0,0,0,1.55,1.55,10.94,10.94,0,0,0,2.33,1.54.68.68,0,0,0,.82-.18l1-1.15a12.76,12.76,0,0,0,1.24.39l.14,1.5a.67.67,0,0,0,.57.61l.25,0a12,12,0,0,0,5.25-.53.67.67,0,0,0,.46-.7l-.13-1.5a8.94,8.94,0,0,0,1.15-.6l1.17,1a.66.66,0,0,0,.83,0,12.17,12.17,0,0,0,2-1.91,11.58,11.58,0,0,0,1.53-2.34.69.69,0,0,0-.17-.81l-1.17-1a9.36,9.36,0,0,0,.39-1.24l1.51-.13A.69.69,0,0,0,59,38,12.12,12.12,0,0,0,58.51,32.45Zm-.78,4.78-1.46.14a.68.68,0,0,0-.61.55,7.74,7.74,0,0,1-.59,1.9.66.66,0,0,0,.19.79l1.12,1a10.93,10.93,0,0,1-1.11,1.59,9.85,9.85,0,0,1-1.37,1.37l-1.13-.93a.66.66,0,0,0-.82,0,7.94,7.94,0,0,1-1.76.92.66.66,0,0,0-.43.69l.12,1.46A10.65,10.65,0,0,1,46,47l-.13-1.46a.69.69,0,0,0-.54-.6,8.35,8.35,0,0,1-1.91-.6l-.2-.06a.67.67,0,0,0-.6.24l-.94,1.13a9.84,9.84,0,0,1-1.6-1.12c-.2-.16-.39-.34-.58-.52s-.33-.33-.48-.5-.21-.23-.31-.35l.12-.14.82-1a.68.68,0,0,0,0-.81,8.94,8.94,0,0,1-.95-1.78.67.67,0,0,0-.68-.43l-1.45.14a10.68,10.68,0,0,1-.34-3.86l1.45-.13a.66.66,0,0,0,.6-.54,9.73,9.73,0,0,1,.6-1.92.66.66,0,0,0-.19-.79l-1.11-.94a11.42,11.42,0,0,1,1.1-1.6A11.73,11.73,0,0,1,40.12,28l1.13.93a.66.66,0,0,0,.81,0A7.77,7.77,0,0,1,43.85,28a.67.67,0,0,0,.43-.69l-.13-1.46A10.62,10.62,0,0,1,48,25.53L48.12,27a.68.68,0,0,0,.54.6,9.66,9.66,0,0,1,1.94.6.66.66,0,0,0,.78-.18l.84-1,.1-.13.39.24.5.32c.24.17.48.35.71.54a11.89,11.89,0,0,1,1.37,1.38l-.94,1.12a.69.69,0,0,0,0,.81,9.62,9.62,0,0,1,.95,1.8.66.66,0,0,0,.69.42l1.43-.13A10.69,10.69,0,0,1,57.73,37.23Z" class="cls-1_1605215620200" vector-effect="non-scaling-stroke"/><path d="M49.78,32.7a4.3,4.3,0,0,0-6,.55,4.28,4.28,0,0,0,2.75,7,4.49,4.49,0,0,0,.9,0,4.27,4.27,0,0,0,2.36-7.53Zm-.43,5.2h0a3,3,0,0,1-2,1.07,3,3,0,0,1-3.25-2.72,3,3,0,0,1,.68-2.19A3,3,0,0,1,47.43,33a3,3,0,0,1,1.92,4.89Z" class="cls-1_1605215620200" vector-effect="non-scaling-stroke"/><line y2="21.72" x2="25.44" y1="21.72" x1="10.48" class="cls-2_1605215620200" vector-effect="non-scaling-stroke"/><rect height="1" width="14.96" y="21.22" x="10.48" class="cls-1_1605215620200" vector-effect="non-scaling-stroke"/><line y2="25.14" x2="25.44" y1="25.14" x1="10.48" class="cls-2_1605215620200" vector-effect="non-scaling-stroke"/><rect height="1" width="14.96" y="24.64" x="10.48" class="cls-1_1605215620200" vector-effect="non-scaling-stroke"/><line y2="28.57" x2="25.44" y1="28.57" x1="10.48" class="cls-2_1605215620200" vector-effect="non-scaling-stroke"/><rect height="1" width="14.96" y="28.07" x="10.48" class="cls-1_1605215620200" vector-effect="non-scaling-stroke"/></g></g></g></svg>