<svg id="Layer_1" data-name="Layer 1" xmlns="http://www.w3.org/2000/svg" viewBox="0 0 64 64"><title>-</title><path d="M48.86,22.88a.68.68,0,0,0-.14-.23,18.66,18.66,0,0,0-32.06,0,.46.46,0,0,0-.14.22,18.2,18.2,0,0,0,0,18.24.49.49,0,0,0,.14.23,18.67,18.67,0,0,0,32.06,0,.59.59,0,0,0,.14-.23,18.2,18.2,0,0,0,0-18.24Zm-.78,17.6h-7.5a35.62,35.62,0,0,0,1-8h8.75A17.17,17.17,0,0,1,48.08,40.48Zm-33-8h8.75a36.21,36.21,0,0,0,.95,8H17.3A17.29,17.29,0,0,1,15.09,32.5Zm2.21-9h7.49a36.21,36.21,0,0,0-.95,8H15.09A17.29,17.29,0,0,1,17.3,23.52Zm15.89-1V14.6c2.5.37,4.72,3.46,6.05,7.92Zm6.33,1a34,34,0,0,1,1,8H33.19v-8ZM32.19,14.6v7.92h-6C27.47,18.06,29.69,15,32.19,14.6Zm0,8.92v8H24.84a34,34,0,0,1,1-8Zm-7.35,9h7.35v8H25.86A34,34,0,0,1,24.84,32.5Zm7.35,9V49.4c-2.5-.37-4.72-3.46-6-7.92Zm1,7.92V41.48h6.05C37.91,45.94,35.68,49,33.19,49.4Zm0-8.92v-8h7.34a34,34,0,0,1-1,8Zm8.34-9a35.62,35.62,0,0,0-1-8h7.5a17.17,17.17,0,0,1,2.2,8Zm5.93-9H40.32c-1-3.45-2.48-6.15-4.29-7.65A17.61,17.61,0,0,1,47.46,22.52ZM29.35,14.87c-1.82,1.5-3.32,4.2-4.29,7.65H17.91A17.66,17.66,0,0,1,29.35,14.87ZM17.91,41.48h7.15c1,3.45,2.47,6.15,4.29,7.65A17.66,17.66,0,0,1,17.91,41.48ZM36,49.13c1.81-1.5,3.31-4.2,4.29-7.65h7.14A17.61,17.61,0,0,1,36,49.13Z" style="fill:#c52228"/><path d="M55.43,11.47a3.24,3.24,0,0,1-3.25-3.25.5.5,0,0,0-.5-.5.5.5,0,0,0-.5.5,3.25,3.25,0,0,1-3.25,3.25.5.5,0,0,0-.5.5.5.5,0,0,0,.5.5,3.26,3.26,0,0,1,3.25,3.25.5.5,0,0,0,.5.5.5.5,0,0,0,.5-.5,3.25,3.25,0,0,1,3.25-3.25.5.5,0,0,0,.5-.5A.51.51,0,0,0,55.43,11.47Zm-3.75,2.26A4.26,4.26,0,0,0,49.92,12a4.24,4.24,0,0,0,1.76-1.75A4.16,4.16,0,0,0,53.43,12,4.18,4.18,0,0,0,51.68,13.73Z" style="fill:#c52228"/><path d="M54.59,18a.06.06,0,0,0-.11,0,1.29,1.29,0,0,1-.84.83.06.06,0,0,0,0,.12,1.27,1.27,0,0,1,.84.83.06.06,0,0,0,.11,0,1.25,1.25,0,0,1,.84-.83.06.06,0,0,0,0-.12A1.27,1.27,0,0,1,54.59,18Z" style="fill:#c52228"/><path d="M17.45,51.53a3.26,3.26,0,0,1-3.25-3.25.5.5,0,0,0-1,0A3.26,3.26,0,0,1,10,51.53a.5.5,0,0,0-.5.5.5.5,0,0,0,.5.5,3.25,3.25,0,0,1,3.25,3.25.5.5,0,0,0,1,0,3.25,3.25,0,0,1,3.25-3.25A.5.5,0,0,0,18,52,.5.5,0,0,0,17.45,51.53ZM13.7,53.78A4.28,4.28,0,0,0,12,52a4.3,4.3,0,0,0,1.75-1.76A4.3,4.3,0,0,0,15.45,52,4.28,4.28,0,0,0,13.7,53.78Z" style="fill:#c52228"/><path d="M10.06,45a2.56,2.56,0,0,1,1.67-1.67.12.12,0,0,0,0-.23,2.58,2.58,0,0,1-1.67-1.67.11.11,0,0,0-.22,0,2.58,2.58,0,0,1-1.67,1.67.12.12,0,0,0,0,.23A2.56,2.56,0,0,1,9.84,45,.11.11,0,0,0,10.06,45Z" style="fill:#c52228"/></svg>