<svg version="1.2" xmlns="http://www.w3.org/2000/svg" xmlns:xlink="http://www.w3.org/1999/xlink" overflow="visible" preserveAspectRatio="none" viewBox="0 0 66 66" id="Layer_1" width="80" height="80"><g transform="translate(1, 1)"><path style="fill:#c52228" d="M46.72,12.47A3.26,3.26,0,0,1,50,15.72a.5.5,0,0,0,.5.5.5.5,0,0,0,.5-.5,3.26,3.26,0,0,1,3.25-3.25.5.5,0,0,0,.5-.5.51.51,0,0,0-.5-.5A3.26,3.26,0,0,1,51,8.22a.5.5,0,0,0-.5-.5.5.5,0,0,0-.5.5,3.26,3.26,0,0,1-3.25,3.25.5.5,0,0,0-.5.5A.5.5,0,0,0,46.72,12.47Zm3.75-2.25A4.22,4.22,0,0,0,52.22,12a4.24,4.24,0,0,0-1.75,1.76A4.3,4.3,0,0,0,48.72,12,4.28,4.28,0,0,0,50.47,10.22Z" vector-effect="non-scaling-stroke"/><path style="fill:#c52228" d="M53.38,18a.06.06,0,0,0-.11,0,1.29,1.29,0,0,1-.84.83.06.06,0,0,0,0,.12,1.27,1.27,0,0,1,.84.83.06.06,0,0,0,.11,0,1.27,1.27,0,0,1,.84-.83.06.06,0,0,0,0-.12A1.29,1.29,0,0,1,53.38,18Z" vector-effect="non-scaling-stroke"/><path style="fill:#c52228" d="M16.24,51.53A3.26,3.26,0,0,1,13,48.28a.5.5,0,0,0-.5-.5.5.5,0,0,0-.5.5,3.26,3.26,0,0,1-3.25,3.25.5.5,0,0,0-.5.5.51.51,0,0,0,.5.5A3.26,3.26,0,0,1,12,55.78a.5.5,0,0,0,.5.5.5.5,0,0,0,.5-.5,3.26,3.26,0,0,1,3.25-3.25.5.5,0,0,0,.5-.5A.5.5,0,0,0,16.24,51.53Zm-3.75,2.25A4.28,4.28,0,0,0,10.74,52a4.3,4.3,0,0,0,1.75-1.76A4.3,4.3,0,0,0,14.24,52,4.28,4.28,0,0,0,12.49,53.78Z" vector-effect="non-scaling-stroke"/><path style="fill:#c52228" d="M8.86,45a2.52,2.52,0,0,1,1.67-1.67.12.12,0,0,0,0-.23,2.54,2.54,0,0,1-1.67-1.67.12.12,0,0,0-.23,0A2.58,2.58,0,0,1,7,43.11a.12.12,0,0,0,0,.23A2.56,2.56,0,0,1,8.63,45,.12.12,0,0,0,8.86,45Z" vector-effect="non-scaling-stroke"/><path style="fill:#c52228" d="M38.94,44.58a17.41,17.41,0,0,1-6.4,2.58c1.82-1.5,3.31-4.2,4.29-7.65h.6a.5.5,0,0,0,0-1h-.34a36.1,36.1,0,0,0,1-8h.76a.5.5,0,0,0,0-1h-.76a36.19,36.19,0,0,0-1-8h7.49a16.32,16.32,0,0,1,1.25,2.73.51.51,0,0,0,.64.31.5.5,0,0,0,.31-.63,17.77,17.77,0,0,0-1.42-3.07.33.33,0,0,0-.07-.13,18.67,18.67,0,0,0-32.13-.07.54.54,0,0,0-.13.22,18.21,18.21,0,0,0,0,18.28s0,0,0,0l0,0a18.71,18.71,0,0,0,16.09,9.23h.06a18.68,18.68,0,0,0,10.26-3.07.51.51,0,0,0,.14-.7A.5.5,0,0,0,38.94,44.58ZM13.81,38.51a17.24,17.24,0,0,1-2.21-8h8.75a36.12,36.12,0,0,0,.95,8Zm0-16.95h7.49a35.6,35.6,0,0,0-1,8H11.6A17.14,17.14,0,0,1,13.82,21.56ZM29.7,12.64c2.5.37,4.72,3.46,6.05,7.92H29.7Zm-1,0v7.92H22.65C24,16.1,26.2,13,28.7,12.64Zm0,8.92v8H21.35a34,34,0,0,1,1-8Zm-7.35,9H28.7v8H22.37A33.9,33.9,0,0,1,21.35,30.54Zm7.35,9v7.92C26.2,47.06,24,44,22.65,39.51Zm1,7.92V39.51h6.05C34.42,44,32.2,47.06,29.7,47.43ZM36,38.51H29.7v-8h7.35A34.43,34.43,0,0,1,36,38.51Zm1-9H29.7v-8H36A34.52,34.52,0,0,1,37.05,29.54Zm6.93-9H36.83c-1-3.46-2.48-6.16-4.3-7.66A17.66,17.66,0,0,1,44,20.56ZM25.86,12.9c-1.81,1.5-3.31,4.2-4.29,7.66H14.43A17.68,17.68,0,0,1,25.86,12.9ZM14.42,39.51h7.15c1,3.45,2.47,6.16,4.28,7.66A17.74,17.74,0,0,1,14.42,39.51Z" vector-effect="non-scaling-stroke"/><path style="fill:#c52228" d="M48.39,27.45a8.76,8.76,0,0,0-8.74,8.74c0,4.66,8,15.56,8.34,16a.5.5,0,0,0,.4.21.52.52,0,0,0,.41-.21c.34-.46,8.33-11.36,8.33-16A8.75,8.75,0,0,0,48.39,27.45Zm0,23.61c-1.64-2.3-7.74-11.1-7.74-14.87a7.74,7.74,0,0,1,15.48,0C56.13,40,50,48.76,48.39,51.06Z" vector-effect="non-scaling-stroke"/><path style="fill:#c52228" d="M48.37,32.61A3.58,3.58,0,1,0,52,36.19,3.58,3.58,0,0,0,48.37,32.61Zm0,6.16A2.58,2.58,0,1,1,51,36.19,2.59,2.59,0,0,1,48.37,38.77Z" vector-effect="non-scaling-stroke"/></g></svg>