<svg version="1.2" xmlns="http://www.w3.org/2000/svg" xmlns:xlink="http://www.w3.org/1999/xlink" overflow="visible" preserveAspectRatio="none" viewBox="0 0 22 22" xml:space="preserve" y="0px" x="0px" width="20" height="20" fill="currentColor"><style type="text/css">
	.st0_1574776120806{fill:#C52228;}
</style>
<g transform="translate(1, 1)">
<g>
	<circle class="st0_1574776120806" r="1" cy="7" cx="13" vector-effect="non-scaling-stroke"></circle>
	<circle class="st0_1574776120806" r="1" cy="7" cx="7" vector-effect="non-scaling-stroke"></circle>
	<path class="st0_1574776120806" d="M10,1c-5,0-9,4-9,9s4,9,9,9s9-4,9-9S15,1,10,1z M10,18c-4.4,0-8-3.6-8-8s3.6-8,8-8s8,3.6,8,8S14.4,18,10,18z" vector-effect="non-scaling-stroke"></path>
	<path class="st0_1574776120806" d="M10,14c-1.9,0-3.5-1.1-4.1-2.8l-0.9,0.3C5.7,13.7,7.7,15,10,15c2.3,0,4.3-1.3,5.1-3.4l-0.9-0.3   C13.5,12.9,11.9,14,10,14z" vector-effect="non-scaling-stroke"></path>
</g>
</g>
</svg>