<svg id="Layer_1" data-name="Layer 1" xmlns="http://www.w3.org/2000/svg" viewBox="0 0 64 64"><path d="M45.42,49V31a.5.5,0,0,0-.5-.5H40.21V27.36a8.34,8.34,0,1,0-16.68,0v3.12H18.82a.5.5,0,0,0-.5.5V49a.5.5,0,0,0,.5.5h26.1A.5.5,0,0,0,45.42,49ZM24.53,27.36a7.34,7.34,0,1,1,14.68,0v3.12H24.53ZM44.42,48.48H19.32v-17h25.1Z" style="fill:#c52228"/><path d="M30.1,36.88A2.49,2.49,0,0,0,30,40.25v4.4a.5.5,0,0,0,.5.5h2.82a.5.5,0,0,0,.5-.5V43a.5.5,0,0,0-.5-.5.5.5,0,0,0-.5.5v1.17H31V40.06a.51.51,0,0,0-.15-.35,1.51,1.51,0,0,1,0-2.13,1.55,1.55,0,0,1,2.12,0,1.51,1.51,0,0,1,0,2.13.51.51,0,0,0-.15.35v1a.5.5,0,0,0,.5.5.5.5,0,0,0,.5-.5v-.86a2.49,2.49,0,0,0-.14-3.37A2.55,2.55,0,0,0,30.1,36.88Z" style="fill:#c52228"/><path d="M45.24,57.06V54a.5.5,0,0,0-.5-.5h-3V53a.5.5,0,0,0-.5-.5.5.5,0,0,0-.5.5v1a.5.5,0,0,0,.5.5h3v2.59a2.44,2.44,0,0,0-1.27.66A2.51,2.51,0,0,0,44.74,62a2.46,2.46,0,0,0,1.77-.74,2.5,2.5,0,0,0,0-3.53A2.44,2.44,0,0,0,45.24,57.06Zm.56,3.49a1.55,1.55,0,0,1-2.12,0,1.51,1.51,0,0,1,0-2.13,1.5,1.5,0,0,1,2.12,2.13Z" style="fill:#c52228"/><path d="M61.27,38.69a2.55,2.55,0,0,0-3.54,0A2.52,2.52,0,0,0,57.05,40H48.92a.5.5,0,0,0-.5.5.5.5,0,0,0,.5.5h8.13a2.5,2.5,0,0,0,5-.5A2.47,2.47,0,0,0,61.27,38.69Zm-.71,2.82a1.53,1.53,0,0,1-2.12,0A1.5,1.5,0,0,1,58,40.45a1.52,1.52,0,0,1,.44-1.06,1.5,1.5,0,0,1,2.12,0A1.52,1.52,0,0,1,61,40.45,1.5,1.5,0,0,1,60.56,41.51Z" style="fill:#c52228"/><path d="M54.5,50.5V45.65a.5.5,0,0,0-.5-.5H48.92a.5.5,0,0,0-.5.5.5.5,0,0,0,.5.5H53.5V50.5a2.44,2.44,0,0,0-1.27.66,2.5,2.5,0,1,0,3.54,0A2.44,2.44,0,0,0,54.5,50.5ZM55.06,54a1.55,1.55,0,0,1-2.12,0,1.51,1.51,0,0,1,0-2.13,1.5,1.5,0,0,1,2.12,0,1.51,1.51,0,0,1,0,2.13Z" style="fill:#c52228"/><path d="M48.92,36.12H54a.5.5,0,0,0,.5-.5V30.79a2.5,2.5,0,0,0,1.27-4.22,2.57,2.57,0,0,0-3.54,0,2.5,2.5,0,0,0,1.27,4.22v4.33H48.92a.5.5,0,0,0,0,1Zm3.58-7.78a1.5,1.5,0,1,1,2.56,1.06,1.53,1.53,0,0,1-2.12,0A1.5,1.5,0,0,1,52.5,28.34Z" style="fill:#c52228"/><path d="M43.21,21.93v4.69a.5.5,0,0,0,1,0V21.93a2.5,2.5,0,0,0,1.27-4.22,2.57,2.57,0,0,0-3.54,0,2.5,2.5,0,0,0,1.27,4.22Zm-.56-3.51a1.5,1.5,0,1,1,2.12,2.12,1.53,1.53,0,0,1-2.12,0,1.5,1.5,0,0,1,0-2.12Z" style="fill:#c52228"/><path d="M20,25.49a.5.5,0,0,0,.5-.5.5.5,0,0,0-.5-.5H19V21.93a2.5,2.5,0,0,0,1.27-4.22,2.57,2.57,0,0,0-3.54,0A2.5,2.5,0,0,0,18,21.93V25a.5.5,0,0,0,.5.5Zm-3-6a1.5,1.5,0,1,1,2.56,1.06,1.53,1.53,0,0,1-2.12,0A1.5,1.5,0,0,1,17,19.48Z" style="fill:#c52228"/><path d="M14.82,38H7a2.51,2.51,0,0,0-.68-1.27,2.57,2.57,0,0,0-3.54,0,2.5,2.5,0,0,0,3.54,3.54A2.59,2.59,0,0,0,7,39h7.87a.5.5,0,0,0,.5-.5A.5.5,0,0,0,14.82,38ZM5.56,39.58a1.53,1.53,0,0,1-2.12,0,1.5,1.5,0,0,1,0-2.12,1.5,1.5,0,0,1,2.12,0,1.5,1.5,0,0,1,0,2.12Z" style="fill:#c52228"/><path d="M14.82,42.85H10a.5.5,0,0,0-.5.5V48.2a2.44,2.44,0,0,0-1.27.66,2.5,2.5,0,1,0,3.54,0,2.44,2.44,0,0,0-1.27-.66V43.85h4.32a.5.5,0,0,0,0-1ZM11.5,50.63a1.5,1.5,0,0,1-.44,1.06,1.53,1.53,0,0,1-2.12,0,1.5,1.5,0,0,1,0-2.12,1.5,1.5,0,0,1,2.12,0A1.5,1.5,0,0,1,11.5,50.63Z" style="fill:#c52228"/><path d="M14.82,32.82H10.5V28.5a2.45,2.45,0,0,0,1.27-.69,2.5,2.5,0,0,0,0-3.53,2.55,2.55,0,0,0-3.54,0,2.5,2.5,0,0,0,0,3.53,2.45,2.45,0,0,0,1.27.69v4.82a.5.5,0,0,0,.5.5h4.82a.5.5,0,0,0,.5-.5A.5.5,0,0,0,14.82,32.82ZM8.5,26.05A1.5,1.5,0,0,1,8.94,25a1.5,1.5,0,0,1,2.12,0,1.5,1.5,0,0,1,.44,1.06,1.52,1.52,0,0,1-.44,1.06,1.55,1.55,0,0,1-2.12,0A1.52,1.52,0,0,1,8.5,26.05Z" style="fill:#c52228"/><path d="M23.48,57.06V53a.5.5,0,0,0-.5-.5.5.5,0,0,0-.5.5v4.08a2.41,2.41,0,0,0-1.26.66,2.5,2.5,0,1,0,3.53,3.53,2.5,2.5,0,0,0,0-3.53A2.44,2.44,0,0,0,23.48,57.06ZM24,60.55a1.55,1.55,0,0,1-2.12,0A1.5,1.5,0,0,1,23,58,1.5,1.5,0,0,1,24,60.55Z" style="fill:#c52228"/></svg>