<svg version="1.2" xmlns="http://www.w3.org/2000/svg" xmlns:xlink="http://www.w3.org/1999/xlink" overflow="visible" preserveAspectRatio="none" viewBox="0 0 866 225" xml:space="preserve" y="0px" x="0px" id="Layer_1_1598966911485" width="250" height="65"><g transform="translate(1, 1)"><style type="text/css">
	.st0_1598966911485{fill:#C42227;}
</style><path d="M624.2,8l-5.6,23.3h18.9l-4.7,19.6h-19L611,61.6c-0.6,2.7-1.1,4.7-1.4,6.2c-0.5,3.2-2.1,7,3.3,9.7  c2.7,1.3,10.4,1.1,16.2,0.4l-10.2,20l-8.7,0.3h-8c-8.4,0-14.4-2-17.8-5.4c-2.7-2.6-4-6.7-4-12.3c0-3.2,0.6-7.5,1.7-13l4.3-16.6  h-10.9l4.6-19.6h11.2l3.5-15.2L624.2,8z" vector-effect="non-scaling-stroke"/><path d="M530.8,29.6c7.5,0,12.5,0.5,17.2,1.6c4.7,1.1,8.4,2.8,11.3,5.1c4.6,3.9,8,9.6,8,17.8c0,6.8-1.6,13.5-4.7,20  c-4.9,10.5-12.3,16.3-21.1,20.5c-6.9,3.3-19.9,5.6-28.9,5.3c-8.9-0.3-12.8-0.8-16.7-1.7c-3.9-0.9-8-2.8-10.8-4.9  c-5.1-3.7-8.4-8.9-8.4-17c0-7.3,1-13,4.1-20.3c2.8-6.6,8-12.8,13-16.5c4.5-3.4,9.6-5.8,15.4-7.3C515,30.6,521.7,29.6,530.8,29.6z   M526.2,48.1c-6.3,0-11.9,3-15.3,7.7c-2.8,4-4.8,9.1-4.8,14.2c0,7.3,4,11,11.9,11c6.2,0,11.8-3.1,15.2-7.8c2.8-3.9,4.9-9.3,4.9-14.4  C538.1,51.6,534.1,48.2,526.2,48.1z" vector-effect="non-scaling-stroke"/><g>
	<path d="M246.6,31.3l-16.2,66.5h-27.6L219,31.3H246.6z" vector-effect="non-scaling-stroke"/>
	<path d="M241.9,0c3.8,0.2,6.4,1.4,8.3,3.6c1.9,2.2,2.1,5.1,2,7.9c-0.7,4.8-2.4,7.7-6.2,10.6c-4.3,3-7.8,4.1-13.7,3.6   c-3.7-0.3-6.9-2-8.4-3.9c-1.6-1.9-2.3-4.8-2-7.8c0.3-3,1.9-6.7,5.7-9.8S237.6-0.2,241.9,0z" vector-effect="non-scaling-stroke"/>
</g><path d="M284.9,31.3l-1.3,5.8c5.8-3.7,9.7-5.3,13.8-6.3c4.5-1.2,8-1.4,13.6-1.2c6.8,0.2,11.4,1.7,15.8,4.6c3.9,2.9,6.3,6.4,6.7,11.9  c0.1,3.8-1.2,9.5-1.2,9.5l-10.2,42.4H295l8.1-33.4c0.8-3.8,1.3-5.8,1.4-7.5c0.5-5.4-3.6-6.8-9.4-6.8c-4.9,0-10.8,1.6-13.7,4.7  c-2.4,2.5-3.8,6.4-5.6,13.6l-7.1,29.4h-27.3l16.1-66.6H284.9z" vector-effect="non-scaling-stroke"/><polygon points="26.4,33.6 200.6,33.5 196.9,51.5" class="st0_1598966911485" vector-effect="non-scaling-stroke"/><polygon points="0,36.1 195.1,57.5 191.6,73.3" class="st0_1598966911485" vector-effect="non-scaling-stroke"/><path d="M550.7,112.9l-7.9,37.1c3.3-2.8,6.2-4.8,8.8-5.9c2.6-1.1,5.4-1.6,8.6-1.6c4.6,0,8.2,1.2,10.9,3.5c2.7,2.3,4,5.5,4,9.6  c0,1.8-0.3,4.3-1,7.5l-6.9,32.8h-8.7l6.9-32.6c0.4-1.9,0.6-3.5,0.6-4.9c0-2.6-0.8-4.7-2.5-6.2c-1.6-1.5-3.9-2.2-6.8-2.2  c-2.2,0-4.5,0.5-6.8,1.4c-2.3,0.9-4.2,2.2-5.7,3.7c-2.1,2.1-3.5,4.9-4.3,8.4l-6.9,32.4h-8.7l17.6-82.9H550.7z" vector-effect="non-scaling-stroke"/><path d="M613.2,142.5c6.2,0,11.1,1.7,14.6,5.1c3.5,3.4,5.2,8.2,5.2,14.4c0,4.1-0.7,8.3-2.1,12.4c-1.4,4.2-3.3,7.8-5.8,11  c-6,7.7-13.8,11.5-23.3,11.5c-6.2,0-11.1-1.7-14.6-5.1c-3.5-3.4-5.2-8.2-5.2-14.3c0-4.2,0.7-8.3,2.1-12.5c1.4-4.2,3.3-7.8,5.8-11  C595.8,146.5,603.6,142.7,613.2,142.5z M611.6,150.1c-6.9,0-12.3,3.7-16.2,11.1c-2.5,4.7-3.8,9.7-3.8,14.8c0,4.4,1.1,7.8,3.3,10.2  c2,2.2,4.9,3.3,8.4,3.3c6.9,0,12.3-3.7,16.2-11.1c2.5-4.7,3.8-9.7,3.8-14.7c0-4.3-1-7.6-3-10C618.3,151.3,615.4,150.1,611.6,150.1z" vector-effect="non-scaling-stroke"/><path d="M679.2,151.7l-8.6,4.9c-0.1-2.4-0.8-4.1-2.1-5.2c-1.3-1.1-3.2-1.6-5.8-1.6c-2.9,0-5.4,0.8-7.4,2.5c-2,1.7-3,3.7-3,6.1  c0,1.6,0.7,2.8,2,3.7c1.3,0.9,4,1.9,7.9,2.9c4.6,1.2,7.7,2.7,9.5,4.4c1.7,1.7,2.6,4.2,2.6,7.6c0,4.7-2,9.1-6.1,13.1  c-4.8,4.7-10.9,7-18.3,7c-4.9,0-8.6-1.1-11.2-3.3c-2.6-2.2-4.3-5.8-5.2-10.8l9-3.5c0.4,6.9,3.6,10.4,9.8,10.4c4,0,7.3-1.3,9.8-4  c2-2.1,2.9-4.4,2.9-7c0-1.6-0.7-2.8-2-3.7c-1.3-0.9-4-1.9-8-3.1c-3.3-0.9-5.6-1.8-7-2.6c-1.4-0.8-2.5-1.9-3.4-3.3  c-1.1-1.7-1.6-3.6-1.6-5.8c0-2,0.5-4.1,1.6-6.3c1.1-2.2,2.5-4.2,4.2-5.9c3.9-3.7,8.9-5.6,15.2-5.6c4.2,0,7.5,0.7,9.9,2.1  C676.2,146.1,678,148.4,679.2,151.7z" vector-effect="non-scaling-stroke"/><path d="M705.7,126.8l-3.6,16.9h14.6l-1.6,7.5h-14.6l-5.3,25c-0.7,3.4-1.1,5.8-1.1,7.3c0,3.9,2.5,5.9,7.6,5.9c1.7,0,3.8-0.4,6.3-1.3  l-2.3,7.3c-3.4,1-6.2,1.4-8.4,1.4c-4,0-7-0.9-9-2.7c-2.1-1.8-3.1-4.4-3.1-7.7c0-2.7,0.5-6.2,1.4-10.5l5.3-24.8h-8.4l1.6-7.5h8.4  l2.8-13.3L705.7,126.8z" vector-effect="non-scaling-stroke"/><path d="M733,143.7l-11.1,52.1h-8.7l11.1-52.1H733z M733.8,117.1c1.4,0,2.5,0.4,3.4,1.3c0.9,0.9,1.3,2,1.3,3.4c0,1.9-0.7,3.5-2.2,5  c-1.5,1.5-3.2,2.2-5.1,2.2c-1.3,0-2.5-0.4-3.4-1.3c-0.9-0.9-1.3-2-1.3-3.4c0-1.9,0.7-3.6,2.2-5C730.2,117.9,731.9,117.1,733.8,117.1  z" vector-effect="non-scaling-stroke"/><path d="M755.6,143.7l-1.3,6.2c3.3-2.8,6.2-4.8,8.8-5.9c2.6-1.1,5.4-1.6,8.6-1.6c4.6,0,8.2,1.2,10.9,3.5c2.7,2.3,4,5.5,4,9.6  c0,1.8-0.3,4.3-1,7.5l-6.9,32.8h-8.7l6.9-32.6c0.4-1.9,0.6-3.5,0.6-4.9c0-2.6-0.8-4.7-2.5-6.2c-1.6-1.5-3.9-2.2-6.8-2.2  c-2.2,0-4.5,0.5-6.8,1.4c-2.3,0.9-4.2,2.2-5.7,3.7c-2.1,2.1-3.5,4.9-4.3,8.4l-6.9,32.4h-8.7l11.1-52.1H755.6z" vector-effect="non-scaling-stroke"/><path d="M847.8,143.7l-11,52.1c-1.5,7-4.1,12.7-7.9,17c-2.8,3.2-6.2,5.8-10.2,7.6c-3.9,1.8-7.7,2.7-11.5,2.7  c-5.2,0-9.6-1.5-13.4-4.4c-1.5-1.2-2.7-2.5-3.6-4c-0.9-1.5-1.7-3.6-2.5-6.4l8.5-5.6c0.9,8.6,5.1,12.8,12.4,12.8  c5.6,0,10.3-2.5,14.2-7.6c2.4-3,4.2-7.6,5.5-13.7l1-4.8c-5.8,5.1-11.7,7.6-17.9,7.6c-4.4,0-8.4-1.4-11.8-4.2  c-4.2-3.5-6.4-8.7-6.4-15.4c0-4.1,0.7-8.3,2.1-12.4c1.4-4.1,3.3-7.8,5.8-11c2.8-3.6,6.2-6.4,10.2-8.5c4-2,8-3.1,12-3.1  c3,0,5.7,0.6,8,1.8c2.3,1.2,4.4,3.1,6.3,5.8l1.3-6.4H847.8z M823.1,150c-6.9,0-12.3,3.7-16.2,11.1c-2.5,4.7-3.8,9.7-3.8,14.9  c0,4.4,1.1,7.8,3.2,10.2c2,2.2,4.9,3.3,8.5,3.3c6.9,0,12.3-3.7,16.2-11.2c2.5-4.7,3.8-9.6,3.8-14.8c0-4.3-1-7.6-3-9.9  C829.8,151.3,826.9,150.1,823.1,150z" vector-effect="non-scaling-stroke"/><path d="M349.6,31.3h27.3l-1,4.7c5.4-3.1,7.4-4.2,10.8-5.1c5.6-1.5,9.8-1.7,14-1.5c5.3,0.2,8.3,1,11.9,2.7c2.7,1.6,4.8,3,7.3,6.5  c6.6-4.4,11.1-6.4,15.6-7.7c4.7-1.3,9.1-1.6,14.2-1.6c7.1,0,12.7,1.6,16.3,4.5c3.6,2.9,6.7,7,6.7,12.6c0.2,2.8-1.1,8-1.1,8  l-10.4,43.3h-27.3l8.3-35.1c0,0,0.9-4.1,1.2-5.9c0.6-4-2.3-6.4-7.8-6.5c-5.2-0.1-9.6,0.9-12.7,4.7c-2.1,2.4-2.8,4.6-4.6,11l-7.6,32  h-27.2c0,0,7.9-32.7,8.4-35.3c0.3-1.3,0.9-3.8,1.1-5.8c0.7-4.2-2.6-6.5-7.5-6.7c-4.6-0.1-8.4,1.6-11.1,4c-3.8,3.4-4.9,8.8-6.6,14.7  l-7,29h-27.2L349.6,31.3z" vector-effect="non-scaling-stroke"/><path d="M815.3,31.3l-1.3,5.8c5.8-3.7,9.7-5.3,13.8-6.3c4.5-1.2,8-1.4,13.6-1.2c6.8,0.2,11.4,1.7,15.8,4.6c3.9,2.9,6.3,6.4,6.7,11.9  c0.1,3.8-1.2,9.5-1.2,9.5l-10.2,42.4h-27.2l8.1-33.4c0.8-3.8,1.3-5.8,1.4-7.5c0.5-5.4-3.7-6.8-9.4-6.8c-4.9,0-10.8,1.6-13.7,4.7  c-2.4,2.5-3.8,6.4-5.6,13.6l-7.1,29.4H772l16.1-66.6H815.3z" vector-effect="non-scaling-stroke"/><g>
	<path d="M678.8,31.3l-16.2,66.5H635l16.2-66.5H678.8z" vector-effect="non-scaling-stroke"/>
	<path d="M674.1,0c3.8,0.2,6.4,1.4,8.3,3.6c1.9,2.2,2.1,5.1,2,7.9c-0.7,4.8-2.4,7.7-6.2,10.6c-4.3,3-7.8,4.1-13.7,3.6   c-3.7-0.3-6.9-2-8.4-3.9c-1.6-1.9-2.3-4.8-2-7.8c0.3-3,1.9-6.7,5.7-9.8C663.6,1,669.8-0.2,674.1,0z" vector-effect="non-scaling-stroke"/>
</g><path d="M734.1,29.4c7.5,0,12.5,0.5,17.2,1.6c4.7,1.1,8.4,2.8,11.3,5.1c4.6,3.9,8,9.6,8,17.8c0,6.8-1.6,13.5-4.7,20  c-4.9,10.5-12.3,16.3-21.1,20.5c-6.9,3.3-19.9,5.6-28.9,5.3c-8.9-0.3-12.8-0.8-16.7-1.7c-3.9-0.9-8-2.8-10.8-4.9  c-5.1-3.7-8.4-8.9-8.4-17c0-7.3,1-13,4.1-20.3c2.8-6.6,8-12.8,13-16.5c4.5-3.4,9.6-5.8,15.4-7.3C718.3,30.5,724.9,29.5,734.1,29.4z   M729.4,48c-6.3,0-11.9,3-15.3,7.7c-2.8,4-4.8,9.1-4.8,14.2c0,7.3,4,11,11.9,11c6.2,0,11.8-3.1,15.2-7.8c2.8-3.9,4.9-9.3,4.9-14.4  C741.3,51.4,737.3,48.1,729.4,48z" vector-effect="non-scaling-stroke"/></g></svg>