<svg width="21" height="22" viewBox="0 0 21 22" fill="none" xmlns="http://www.w3.org/2000/svg">
<path d="M10.5 2.14473C13.3055 2.14473 13.6377 2.15703 14.741 2.20625C15.7664 2.25137 16.3201 2.42363 16.6893 2.56719C17.1773 2.75586 17.5301 2.98555 17.8951 3.35059C18.2643 3.71973 18.4898 4.06836 18.6785 4.55645C18.8221 4.92559 18.9943 5.4834 19.0395 6.50469C19.0887 7.61211 19.101 7.94433 19.101 10.7457C19.101 13.5512 19.0887 13.8834 19.0395 14.9867C18.9943 16.0121 18.8221 16.5658 18.6785 16.935C18.4898 17.423 18.2602 17.7758 17.8951 18.1408C17.526 18.51 17.1773 18.7355 16.6893 18.9242C16.3201 19.0678 15.7623 19.24 14.741 19.2852C13.6336 19.3344 13.3014 19.3467 10.5 19.3467C7.69453 19.3467 7.36231 19.3344 6.25899 19.2852C5.23359 19.24 4.67988 19.0678 4.31074 18.9242C3.82266 18.7355 3.46992 18.5059 3.10488 18.1408C2.73574 17.7717 2.51016 17.423 2.32148 16.935C2.17793 16.5658 2.00566 16.008 1.96055 14.9867C1.91133 13.8793 1.89902 13.5471 1.89902 10.7457C1.89902 7.94023 1.91133 7.60801 1.96055 6.50469C2.00566 5.4793 2.17793 4.92559 2.32148 4.55645C2.51016 4.06836 2.73984 3.71562 3.10488 3.35059C3.47402 2.98144 3.82266 2.75586 4.31074 2.56719C4.67988 2.42363 5.2377 2.25137 6.25899 2.20625C7.36231 2.15703 7.69453 2.14473 10.5 2.14473ZM10.5 0.253906C7.64942 0.253906 7.29258 0.266211 6.17285 0.31543C5.05723 0.364648 4.29024 0.545117 3.62578 0.803515C2.93262 1.07422 2.34609 1.43105 1.76367 2.01758C1.17715 2.6 0.820313 3.18652 0.549609 3.87559C0.291211 4.54414 0.110742 5.30703 0.0615234 6.42266C0.0123047 7.54648 0 7.90332 0 10.7539C0 13.6045 0.0123047 13.9613 0.0615234 15.0811C0.110742 16.1967 0.291211 16.9637 0.549609 17.6281C0.820313 18.3213 1.17715 18.9078 1.76367 19.4902C2.34609 20.0727 2.93262 20.4336 3.62168 20.7002C4.29024 20.9586 5.05313 21.1391 6.16875 21.1883C7.28848 21.2375 7.64531 21.2498 10.4959 21.2498C13.3465 21.2498 13.7033 21.2375 14.823 21.1883C15.9387 21.1391 16.7057 20.9586 17.3701 20.7002C18.0592 20.4336 18.6457 20.0727 19.2281 19.4902C19.8105 18.9078 20.1715 18.3213 20.4381 17.6322C20.6965 16.9637 20.877 16.2008 20.9262 15.0852C20.9754 13.9654 20.9877 13.6086 20.9877 10.758C20.9877 7.90742 20.9754 7.55059 20.9262 6.43086C20.877 5.31523 20.6965 4.54824 20.4381 3.88379C20.1797 3.18652 19.8229 2.6 19.2363 2.01758C18.6539 1.43516 18.0674 1.07422 17.3783 0.807617C16.7098 0.549219 15.9469 0.36875 14.8313 0.319531C13.7074 0.266211 13.3506 0.253906 10.5 0.253906Z" fill="#67788A"/>
<path d="M10.4998 5.36035C7.52202 5.36035 5.1062 7.77617 5.1062 10.7539C5.1062 13.7316 7.52202 16.1475 10.4998 16.1475C13.4775 16.1475 15.8933 13.7316 15.8933 10.7539C15.8933 7.77617 13.4775 5.36035 10.4998 5.36035ZM10.4998 14.2525C8.56792 14.2525 7.00112 12.6857 7.00112 10.7539C7.00112 8.82207 8.56792 7.25527 10.4998 7.25527C12.4316 7.25527 13.9984 8.82207 13.9984 10.7539C13.9984 12.6857 12.4316 14.2525 10.4998 14.2525Z" fill="#67788A"/>
<path d="M17.366 5.14688C17.366 5.84414 16.8 6.40606 16.1068 6.40606C15.4096 6.40606 14.8477 5.84004 14.8477 5.14688C14.8477 4.44961 15.4137 3.8877 16.1068 3.8877C16.8 3.8877 17.366 4.45371 17.366 5.14688Z" fill="#67788A"/>
</svg>
