<svg version="1.2" xmlns="http://www.w3.org/2000/svg" xmlns:xlink="http://www.w3.org/1999/xlink" overflow="visible" preserveAspectRatio="none" viewBox="0 0 66 66" id="Layer_1" width="80" height="80"><g transform="translate(1, 1)"><path style="fill:#c52228" d="M54.9,29.84a3,3,0,0,0-.58-4.28A3.06,3.06,0,0,0,52.06,25l-9.92,1.35A9,9,0,0,0,41,16a2.11,2.11,0,0,0-1.07-.63l-.38-2.79a.5.5,0,0,0-.2-.33.48.48,0,0,0-.37-.09L11.16,16a.51.51,0,0,0-.43.56l1.6,11.69A6.65,6.65,0,0,1,11,33.14L8.41,36.57a.51.51,0,0,0-.1.38.5.5,0,0,0,.2.33L12,39.88a6.69,6.69,0,0,1,2.56,4.39l1.59,11.66a.53.53,0,0,0,.19.33.5.5,0,0,0,.31.1h.06l27.8-3.8a.49.49,0,0,0,.42-.56l-.59-4.36L51,46.73a3,3,0,0,0,2.6-3.44,2.94,2.94,0,0,0-1.16-2A3,3,0,0,0,54.33,38a3,3,0,0,0-1.17-2l0,0a3,3,0,0,0,.59-5.24A3,3,0,0,0,54.9,29.84ZM43.83,51.64,17,55.3,15.51,44.13a7.71,7.71,0,0,0-2.95-5.05l-3.05-2.3,2.33-3a7.68,7.68,0,0,0,1.48-5.64L11.79,16.9l26.8-3.66.3,2.2a2.1,2.1,0,0,0-1,.6,2,2,0,0,0-.5,1.52v.14A8,8,0,0,1,31,26.18a8.31,8.31,0,0,1-1.62.12l-.2-1.45a.49.49,0,0,0-.56-.43l-5.91.81a.53.53,0,0,0-.33.19.49.49,0,0,0-.09.37l3.5,25.69a.51.51,0,0,0,.5.43h.07l5.9-.81a.46.46,0,0,0,.34-.19.48.48,0,0,0,.09-.37l-.17-1.29,10.8-1.48ZM31.62,50.18l-4.91.67-3.38-24.7,4.92-.67ZM52.75,30l-8.21,1.13a.49.49,0,0,0-.43.56.48.48,0,0,0,.06.18l0,0a.52.52,0,0,0,.1.11l0,0a.31.31,0,0,0,.13.06l.06,0h.15l7-1a2.05,2.05,0,0,1,.56,4.07l-5.09.7a.49.49,0,0,0-.43.56.55.55,0,0,0,.06.18l0,.05.08.09.08,0a.2.2,0,0,0,.08,0l.09,0h.13L51,36.42a2.06,2.06,0,0,1,1.52.4,2,2,0,0,1,.79,1.35,2,2,0,0,1-1.75,2.31L47.8,41h0a.48.48,0,0,0-.29.83.12.12,0,0,0,0,.05l.06,0,.1,0h.07l.08,0h.07l2.35-.32h.2a2.08,2.08,0,0,1,2.08,1.77A2,2,0,0,1,52.17,45a2,2,0,0,1-1.36.79l-7.14,1h0l-11.3,1.54-2.86-21a9.7,9.7,0,0,0,1.66-.14,9,9,0,0,0,7.25-9.5v-.15a1,1,0,0,1,.24-.8,1.12,1.12,0,0,1,.78-.36h.09a1.06,1.06,0,0,1,.7.35,8,8,0,0,1,.52,10,.48.48,0,0,0-.1.37.49.49,0,0,0,.48.42h.08l11-1.5a2,2,0,0,1,1.51.4,2,2,0,0,1,.4,2.87A2,2,0,0,1,52.75,30Z" vector-effect="non-scaling-stroke"/><path style="fill:#c52228" d="M50.4,19.43a.51.51,0,0,0,.42.23.57.57,0,0,0,.28-.08l3.56-2.35A2.33,2.33,0,0,0,55.31,14h0a2.31,2.31,0,0,0-3.21-.65l-.11.07-.08-.11a2.26,2.26,0,0,0-1.47-1,2.31,2.31,0,0,0-2.39,3.54Zm-1.14-5.92a1.3,1.3,0,0,1,.72-.22,1.09,1.09,0,0,1,.26,0,1.33,1.33,0,0,1,.84.56l.35.53a.5.5,0,0,0,.69.14l.53-.35a1.32,1.32,0,0,1,1.82.37h0a1.33,1.33,0,0,1-.37,1.82L51,18.47l-2.07-3.14A1.32,1.32,0,0,1,49.26,13.51Z" vector-effect="non-scaling-stroke"/><path style="fill:#c52228" d="M46.2,9.87l.84-1,.15-.17a.65.65,0,0,0-.08-.92h0a.64.64,0,0,0-.91.08L46.05,8l-.17-.15A.66.66,0,0,0,45,8a.64.64,0,0,0,.08.91Z" vector-effect="non-scaling-stroke"/></g></svg>