<svg version="1.2" xmlns="http://www.w3.org/2000/svg" xmlns:xlink="http://www.w3.org/1999/xlink" overflow="visible" preserveAspectRatio="none" viewBox="0 0 66 66" id="Layer_1" width="80" height="80"><g transform="translate(1, 1)"><path style="fill:#c52228" d="M29.78,32.16A11.71,11.71,0,1,0,41.49,43.87,11.72,11.72,0,0,0,29.78,32.16Zm0,22.42A10.71,10.71,0,1,1,40.49,43.87,10.71,10.71,0,0,1,29.78,54.58Z" vector-effect="non-scaling-stroke"/><path style="fill:#c52228" d="M34.13,38.81,30.5,42.45a1.59,1.59,0,0,0-1.85.29,1.6,1.6,0,1,0,2.56.41l3.63-3.63a.5.5,0,0,0,0-.71A.51.51,0,0,0,34.13,38.81Z" vector-effect="non-scaling-stroke"/><path style="fill:#c52228" d="M54.29,47.56H47.52a18.54,18.54,0,0,0,.35-3.19h1.86a.5.5,0,0,0,0-1H47.87a16.92,16.92,0,0,0-.3-2.87h5.12a.5.5,0,0,0,.5-.5.5.5,0,0,0-.5-.5H47.35a18.1,18.1,0,0,0-3.1-6.5L45.32,32a2.91,2.91,0,0,0,1.69.54,2.94,2.94,0,1,0-2.94-2.94,2.85,2.85,0,0,0,.55,1.69l-1,1a18.07,18.07,0,0,0-10.14-6.08v-2.9h1.1a.5.5,0,0,0,.5-.5V17.93a.5.5,0,0,0-.5-.5H25a.5.5,0,0,0-.5.5v4.81a.5.5,0,0,0,.5.5h1.1v2.9a18.11,18.11,0,1,0,19.48,26.6h2.57a.5.5,0,0,0,.5-.5.5.5,0,0,0-.5-.5H46.07a17.65,17.65,0,0,0,1.2-3.21.5.5,0,0,0,.13,0h6.89a.5.5,0,0,0,.5-.5A.5.5,0,0,0,54.29,47.56ZM47,27.61a1.94,1.94,0,1,1-1.37,3.31h0A1.94,1.94,0,0,1,47,27.61ZM25.48,18.43h8.61v3.81H25.48Zm7,4.81v2.49H27.08V23.24ZM29.78,61A17.12,17.12,0,1,1,46.9,43.87,17.14,17.14,0,0,1,29.78,61Z" vector-effect="non-scaling-stroke"/><path style="fill:#c52228" d="M52.43,43.87a.5.5,0,0,0,.5.5h1.13a.5.5,0,0,0,0-1H52.93A.5.5,0,0,0,52.43,43.87Z" vector-effect="non-scaling-stroke"/><path style="fill:#c52228" d="M56.24,39.65a.36.36,0,0,0-.16-.11.51.51,0,0,0-.54.11.47.47,0,0,0-.15.35.41.41,0,0,0,0,.19.36.36,0,0,0,.11.16.48.48,0,0,0,.7,0,.45.45,0,0,0,.15-.35A.47.47,0,0,0,56.24,39.65Z" vector-effect="non-scaling-stroke"/><path style="fill:#c52228" d="M52.93,51.74h-1.6a.51.51,0,0,0-.5.5.5.5,0,0,0,.5.5h1.6a.5.5,0,0,0,.5-.5A.5.5,0,0,0,52.93,51.74Z" vector-effect="non-scaling-stroke"/><path style="fill:#c52228" d="M15.85,26.7a.06.06,0,0,0-.11,0,1.27,1.27,0,0,1-.84.83.06.06,0,0,0,0,.12,1.27,1.27,0,0,1,.84.83.06.06,0,0,0,.11,0,1.27,1.27,0,0,1,.84-.83.06.06,0,0,0,0-.12A1.27,1.27,0,0,1,15.85,26.7Z" vector-effect="non-scaling-stroke"/><path style="fill:#c52228" d="M9.6,27.68a.12.12,0,0,0-.23,0A2.56,2.56,0,0,1,7.7,29.35a.12.12,0,0,0,0,.23,2.56,2.56,0,0,1,1.67,1.67.12.12,0,0,0,.23,0,2.52,2.52,0,0,1,1.67-1.67.12.12,0,0,0,0-.23A2.52,2.52,0,0,1,9.6,27.68Z" vector-effect="non-scaling-stroke"/><path style="fill:#c52228" d="M13,25.63a.5.5,0,0,0,.5-.5,3.26,3.26,0,0,1,3.25-3.25.5.5,0,0,0,.5-.5.5.5,0,0,0-.5-.5,3.26,3.26,0,0,1-3.25-3.25.5.5,0,0,0-.5-.5.51.51,0,0,0-.5.5,3.26,3.26,0,0,1-3.25,3.25.51.51,0,0,0-.5.5.5.5,0,0,0,.5.5,3.26,3.26,0,0,1,3.25,3.25A.5.5,0,0,0,13,25.63Zm-1.75-4.25A4.28,4.28,0,0,0,13,19.63a4.34,4.34,0,0,0,1.75,1.75A4.34,4.34,0,0,0,13,23.13,4.28,4.28,0,0,0,11.23,21.38Z" vector-effect="non-scaling-stroke"/></g></svg>