<svg id="Layer_1" data-name="Layer 1" xmlns="http://www.w3.org/2000/svg" viewBox="0 0 64 64"><title>-</title><path d="M45.09,29.51a.54.54,0,0,0-.51.49l0,1.56L30.22,56.62l-4.13-2.36a.5.5,0,1,0-.5.86l4.57,2.61a.45.45,0,0,0,.25.07.5.5,0,0,0,.43-.25L45.48,31.93a.45.45,0,0,0,.06-.32l0-1.59A.51.51,0,0,0,45.09,29.51Z" style="fill:#c52228"/><path d="M54.54,8a6.42,6.42,0,0,0-4.85-1.83,6.29,6.29,0,0,0-5.62,4.28l-2,5.84a5.38,5.38,0,0,0-5,1.43l-.61.61-7.65,2.3a.45.45,0,0,0-.21.12L7.77,41.65a.53.53,0,0,0-.15.36.51.51,0,0,0,.15.35L20.14,54.73a.49.49,0,0,0,.35.14.5.5,0,0,0,.36-.14L41.71,33.87a.45.45,0,0,0,.12-.21L44.14,26l.6-.6a5.41,5.41,0,0,0,1.44-5L52,18.48A6.3,6.3,0,0,0,54.54,8ZM40.91,33.25,20.49,53.67,8.83,42,29.25,21.59,35,19.86l-3.65,3.65a.5.5,0,0,0,0,.71l6.93,6.93a.5.5,0,0,0,.35.15.51.51,0,0,0,.36-.15l3.65-3.66ZM44,24.69l-5.4,5.4-6.22-6.23,4.67-4.67h0l.71-.72a4.4,4.4,0,0,1,4-1.19l-.64,1.91a3,3,0,0,0-.31,0,2.52,2.52,0,1,0,1.26.35l.64-1.91a4.34,4.34,0,0,1,1.28.87A4.41,4.41,0,0,1,44,24.69ZM40.7,22.12a.45.45,0,0,0,.16,0,.49.49,0,0,0,.47-.34l.45-1.33a1.49,1.49,0,1,1-1-.33l-.45,1.34A.5.5,0,0,0,40.7,22.12Zm11-4.59-5.85,1.93a5.3,5.3,0,0,0-1.14-1.7,5.42,5.42,0,0,0-1.67-1.13l2-5.82a5.28,5.28,0,0,1,4.76-3.6,5.34,5.34,0,0,1,4,1.54,5.3,5.3,0,0,1-2.1,8.78Z" style="fill:#c52228"/><path d="M19.9,43.35a1,1,0,0,0-.65.14,1,1,0,0,0,0-.58,1.17,1.17,0,0,0-.34-.55,1.22,1.22,0,0,0-.91-.42,1.46,1.46,0,0,0-1,.5l-1.62,1.63,3.35,3.35,1.7-1.7a1.55,1.55,0,0,0,.53-1,1.3,1.3,0,0,0-.46-1A1.16,1.16,0,0,0,19.9,43.35Zm-3.49.58.92-.92a.94.94,0,0,1,.59-.34.72.72,0,0,1,.52.26.64.64,0,0,1,0,1l-1,1Zm3.53,1.5-1,1-1.08-1.09.95-1a1.1,1.1,0,0,1,.62-.37.71.71,0,0,1,.54.25.8.8,0,0,1,.3.58A.9.9,0,0,1,19.94,45.43Z" style="fill:#c52228"/><path d="M23,40.87a.88.88,0,0,0-.28,0,1.37,1.37,0,0,0,.16-.85,1.45,1.45,0,0,0-.43-.79,1.57,1.57,0,0,0-1.06-.53,1.5,1.5,0,0,0-1.09.54l-1.54,1.54,3.35,3.35.57-.56-1.19-1.19.63-.63a.72.72,0,0,1,.32-.21.54.54,0,0,1,.34.05l1.35.52.59-.58L23.27,41A1.74,1.74,0,0,0,23,40.87Zm-1.14.23-.83.82-1.26-1.27.87-.87a.77.77,0,0,1,1.24,0A.81.81,0,0,1,21.81,41.1Z" style="fill:#c52228"/><path d="M22.83,36.65l2.08,4.64.58-.59L25,39.5l1.35-1.35,1.2.53.59-.58L23.47,36Zm3,1.16L24.62,39l-1-2.12Z" style="fill:#c52228"/><polygon points="27.55 31.94 30.02 34.41 25.8 33.69 25.3 34.19 28.65 37.54 29.22 36.98 26.76 34.51 30.97 35.23 31.47 34.73 28.11 31.37 27.55 31.94" style="fill:#c52228"/><path d="M31.64,28.64a2,2,0,0,0-1.51.71l-1.36,1.36,3.36,3.36,1.36-1.36a2,2,0,0,0,.71-1.51,2.63,2.63,0,0,0-.9-1.61A2.79,2.79,0,0,0,31.64,28.64Zm1.78,3.06a1.81,1.81,0,0,1-.46.66l-.7.7-2.48-2.47.71-.71a1.81,1.81,0,0,1,.68-.46,1,1,0,0,1,.7.07,3.36,3.36,0,0,1,.86.67,2.8,2.8,0,0,1,.64.85A.93.93,0,0,1,33.42,31.7Z" style="fill:#c52228"/></svg>