<svg version="1.2" xmlns="http://www.w3.org/2000/svg" xmlns:xlink="http://www.w3.org/1999/xlink" overflow="visible" preserveAspectRatio="none" viewBox="0 0 66 66" id="Layer_1_1569956167033" width="80" height="80"><g transform="translate(1, 1)"><path style="fill:#c52228" d="M61.5,21.1a.5.5,0,0,0-.5.5V53.5H3V19.1H19a.5.5,0,0,0,0-1H2.5a.5.5,0,0,0-.5.5V54a.5.5,0,0,0,.5.5h25v.1A12.45,12.45,0,0,1,24.83,61H21.07a.5.5,0,1,0,0,1H42.79a.5.5,0,0,0,0-1H39.17a12.45,12.45,0,0,1-2.67-6.4v-.1h25A.5.5,0,0,0,62,54V21.6A.5.5,0,0,0,61.5,21.1Zm-26,33.61A13.23,13.23,0,0,0,37.92,61H26.08a13.23,13.23,0,0,0,2.41-6.29l0-.21h7Z" vector-effect="non-scaling-stroke"/><path style="fill:#c52228" d="M49.36,20.38a2.91,2.91,0,0,0,2.06-5,2.91,2.91,0,1,0-4.12,4.12A2.89,2.89,0,0,0,49.36,20.38ZM48,16.12a1.91,1.91,0,1,1,0,2.71A1.91,1.91,0,0,1,48,16.12Z" vector-effect="non-scaling-stroke"/><path style="fill:#c52228" d="M22.18,44.05a.48.48,0,0,0,0,.7.5.5,0,0,0,.35.15.51.51,0,0,0,.36-.15L34,33.67l1.72,1.72-6.15,6.15a.5.5,0,0,0,0,.7.51.51,0,0,0,.36.15.5.5,0,0,0,.35-.15l6.15-6.15,1.37,1.37a.51.51,0,0,0,.7,0l2.05-2.05L47,41.88a.71.71,0,0,0,.51.21.7.7,0,0,0,.7-.6l2.68-14.18,3.65-3.65c5.23-5.23,3-13.59,2.94-13.95a.5.5,0,0,0-.35-.35c-.35-.09-8.72-2.29-13.95,2.94L39.53,16,25.4,18.62A.72.72,0,0,0,25,19.84l6.47,6.47-2.05,2.05a.5.5,0,0,0-.14.35.52.52,0,0,0,.14.36l1.53,1.52-8.58,8.57a.5.5,0,0,0,0,.71.49.49,0,0,0,.35.15.51.51,0,0,0,.36-.15l8.57-8.58L33.27,33ZM38.27,17.21l-3.64,3.64a.48.48,0,0,0,0,.7.5.5,0,0,0,.71,0L43.88,13c4.3-4.3,11.21-3.08,12.69-2.75.33,1.48,1.56,8.38-2.75,12.69l-8.69,8.69a.51.51,0,0,0,0,.71.54.54,0,0,0,.36.14.52.52,0,0,0,.35-.14l3.79-3.79L47.32,40.79l-6.44-6.44L32.48,26h0L26,19.52ZM32.13,27l7.69,7.68-1.7,1.7-7.68-7.69Z" vector-effect="non-scaling-stroke"/><path style="fill:#c52228" d="M6.5,48a.5.5,0,0,0-.5.5.5.5,0,0,0,.5.5h51a.5.5,0,0,0,.5-.5.5.5,0,0,0-.5-.5Z" vector-effect="non-scaling-stroke"/></g></svg>