<svg version="1.2" xmlns="http://www.w3.org/2000/svg" xmlns:xlink="http://www.w3.org/1999/xlink" overflow="visible" preserveAspectRatio="none" viewBox="0 0 66 66" id="Layer_1" width="80" height="80"><g transform="translate(1, 1)"><path style="fill:#c52228" d="M11.67,28.67a.5.5,0,0,0,.35.14.54.54,0,0,0,.36-.14l3.73-3.74a.5.5,0,0,0,0-.7.5.5,0,0,0-.71,0l-2.88,2.88v-9a.5.5,0,0,0-.5-.5.5.5,0,0,0-.5.5v9L8.64,24.23a.49.49,0,1,0-.7.7Z" vector-effect="non-scaling-stroke"/><path style="fill:#c52228" d="M16.25,31.51a.5.5,0,0,0-.5-.5H8.29a.5.5,0,0,0-.5.5.5.5,0,0,0,.5.5h7.46A.5.5,0,0,0,16.25,31.51Z" vector-effect="non-scaling-stroke"/><path style="fill:#c52228" d="M26.71,31.35a.57.57,0,0,0,.25.06.49.49,0,0,0,.43-.26.5.5,0,0,0-.19-.68,10.57,10.57,0,1,1,15.71-9.23,10.38,10.38,0,0,1-1.28,5,.5.5,0,1,0,.87.48,11.37,11.37,0,0,0,1.41-5.5,11.57,11.57,0,1,0-17.2,10.11Z" vector-effect="non-scaling-stroke"/><path style="fill:#c52228" d="M37.76,25.78a.5.5,0,0,0,.7-.1,7.46,7.46,0,0,0,1.45-4.44,7.57,7.57,0,1,0-13.33,4.91.5.5,0,1,0,.76-.64,6.57,6.57,0,1,1,11.57-4.27,6.42,6.42,0,0,1-1.26,3.84A.51.51,0,0,0,37.76,25.78Z" vector-effect="non-scaling-stroke"/><path style="fill:#c52228" d="M52.6,32a3.73,3.73,0,0,0-2.84,1l-.25.26a3.9,3.9,0,0,0-3.08-3.25,3.81,3.81,0,0,0-3.13.84,2.33,2.33,0,0,0-.42.41A3.93,3.93,0,0,0,39.32,28a3.77,3.77,0,0,0-2.83,1c-.07.06-.13.13-.19.19v-6a4,4,0,0,0-3.62-4,3.83,3.83,0,0,0-4,3.82V42.68l-4.43-4.43a7.13,7.13,0,0,0-8.76-1.06,1.75,1.75,0,0,0-.84,1.31,1.73,1.73,0,0,0,.5,1.45l5.25,5.24A32.37,32.37,0,0,1,29.22,61.6a.5.5,0,0,0,.49.4h.1a.49.49,0,0,0,.39-.59,33.4,33.4,0,0,0-9.12-16.91l-5.24-5.25a.72.72,0,0,1-.22-.62.75.75,0,0,1,.37-.57,6.11,6.11,0,0,1,7.53.9l5.29,5.29a.51.51,0,0,0,.54.11.5.5,0,0,0,.31-.47V23A2.8,2.8,0,0,1,30.54,21a2.86,2.86,0,0,1,2.09-.77,3,3,0,0,1,2.67,3V36.74a.5.5,0,0,0,.5.5.5.5,0,0,0,.5-.5v-4.9a2.8,2.8,0,0,1,.88-2.05A2.86,2.86,0,0,1,39.27,29a3,3,0,0,1,2.67,3v5.71a.5.5,0,0,0,.5.5.5.5,0,0,0,.5-.5v-3.9a2.82,2.82,0,0,1,3.32-2.78,3,3,0,0,1,2.31,3v4.71a.5.5,0,0,0,.5.5.5.5,0,0,0,.5-.5v-2.9a2.84,2.84,0,0,1,.88-2.05A2.94,2.94,0,0,1,52.54,33a3,3,0,0,1,2.67,3V42a96.32,96.32,0,0,1-2,19.45.5.5,0,0,0,1,.2,97.5,97.5,0,0,0,2-19.65V36A4,4,0,0,0,52.6,32Z" vector-effect="non-scaling-stroke"/><path style="fill:#c52228" d="M36.35,7.12A.51.51,0,0,0,36.71,7l2.12-2.12a.5.5,0,0,0,0-.7.5.5,0,0,0-.71,0L36,6.27A.48.48,0,0,0,36,7,.5.5,0,0,0,36.35,7.12Z" vector-effect="non-scaling-stroke"/><path style="fill:#c52228" d="M28,7a.51.51,0,0,0,.36.15.5.5,0,0,0,.35-.85L26.57,4.15a.5.5,0,0,0-.71,0,.5.5,0,0,0,0,.7Z" vector-effect="non-scaling-stroke"/><path style="fill:#c52228" d="M32.34,6.5a.5.5,0,0,0,.5-.5V3a.5.5,0,0,0-.5-.5.5.5,0,0,0-.5.5V6A.5.5,0,0,0,32.34,6.5Z" vector-effect="non-scaling-stroke"/></g></svg>