<svg version="1.2" xmlns="http://www.w3.org/2000/svg" xmlns:xlink="http://www.w3.org/1999/xlink" overflow="visible" preserveAspectRatio="none" viewBox="0 0 22 22" xml:space="preserve" y="0px" x="0px" id="Layer_1_1571925687647" width="20" height="20"><g transform="translate(1, 1)"><style type="text/css">
	.st0_1571925687647{fill:#C52228;}
</style><path d="M13.9,18.8C13.9,18.8,13.9,18.8,13.9,18.8c-2.8,0-5.7-2.4-8.1-4.8l0,0c-2.2-2.2-4.7-5.1-4.6-7.9  c0-2.8,2.1-4.6,2.2-4.7l0.4-0.3l4.1,4.1L6.8,8.2l4.9,4.9l3-1.1l4.2,4.2l-0.3,0.4C18.5,16.7,16.7,18.8,13.9,18.8z M6.5,13.3  c1.4,1.3,4.6,4.5,7.3,4.5c0,0,0,0,0,0c1.7,0,3-1,3.6-1.5l-3.1-3.1l-3,1.1L5.6,8.4l1.1-2.9l-3-3C3.2,3.1,2.2,4.4,2.2,6.1  C2.2,8.5,4.5,11.2,6.5,13.3z" class="st0_1571925687647" vector-effect="non-scaling-stroke"/></g></svg>