<svg version="1.1" id="Layer_1_1569955279215" xmlns="http://www.w3.org/2000/svg" xmlns:xlink="http://www.w3.org/1999/xlink"
	 x="0px" y="0px" viewBox="0 0 85 85" style="enable-background:new 0 0 85 85;" xml:space="preserve">
<style type="text/css">
	.st0{fill:#C52228;}
</style>
<g transform="translate(1, 1)">
	<path vector-effect="non-scaling-stroke" class="st0" d="M57.4,54.8l6.5-6.5c1.1-1.1,1.7-2.6,1.7-4.1c0-1.2,0.5-2.3,1.3-3.2
		l3.5-3.6l1.1,1.1c0.1,0.1,0.3,0.2,0.5,0.2c0.2,0,0.3-0.1,0.5-0.2l8.8-8.9c0.3-0.2,0.3-0.6,0-0.9c0,0,0,0,0,0L64,11.5
		c-0.3-0.3-0.7-0.3-0.9,0c0,0,0,0,0,0l-8.8,8.8c-0.1,0.1-0.2,0.3-0.2,0.5c0,0.2,0.1,0.3,0.2,0.5l1.1,1.1L53.7,24
		c-1.2,1.1-2.9,1.5-4.4,0.9c-2.7-0.9-5.6-0.3-7.7,1.6h-6.1c-2.5,0-4.9-1-6.7-2.8l-1.3-1.3l1.1-1.1c0.3-0.2,0.3-0.6,0-0.9
		c0,0,0,0,0,0l-8.8-8.8c-0.3-0.3-0.7-0.3-0.9,0c0,0,0,0,0,0L1.7,28.9c-0.3,0.3-0.3,0.7,0,0.9c0,0,0,0,0,0l8.8,8.8
		c0.1,0.1,0.3,0.2,0.5,0.2c0.2,0,0.3-0.1,0.5-0.2l1.1-1.1c2,2.2,3.4,4.9,3.8,7.9c0.3,1.6,1,3.1,2.2,4.2l1.1,1.1
		c-0.6,0.6-0.9,1.5-0.9,2.4c0,1.9,1.6,3.5,3.5,3.5c0,0,0,0,0,0c0.2,0,0.4,0,0.6,0c0,0.2,0,0.4,0,0.6c0,1.9,1.6,3.5,3.5,3.5
		c0.2,0,0.4,0,0.6-0.1c0,0.2,0,0.4,0,0.6c0,1.9,1.6,3.5,3.5,3.5c0.2,0,0.4,0,0.6,0c0,0.2,0,0.4,0,0.6c0,1.9,1.6,3.5,3.5,3.5l0,0
		c0.9,0,1.8-0.4,2.4-1c0.6,0.4,1.3,0.7,2,0.7c1.8,0,3.3-1.3,3.5-3.1l1.4,1.4c0.7,0.7,1.5,1,2.5,1c1.8,0,3.2-1.3,3.5-3.1l0,0
		c1.4,1.4,3.6,1.4,4.9,0c1-1,1.3-2.5,0.7-3.9c1.9,0,3.4-1.6,3.4-3.6c0-0.9-0.4-1.8-1-2.4L57.4,54.8z M11,37.3l-7.9-7.9L19.4,13
		l7.9,7.9L11,37.3z M63.5,12.9l16.3,16.3l-7.9,7.9L55.6,20.8L63.5,12.9z M48.9,26.2c2,0.7,4.3,0.2,5.8-1.3l1.6-1.6l13.2,13.2
		l-3.5,3.6c-1.1,1.1-1.7,2.6-1.7,4.1c0,1.2-0.5,2.3-1.3,3.2l-6.5,6.5L45.3,42.7c1.4,0.5,3,0.8,4.5,0.8c1,0,1.9-0.1,2.9-0.3
		c0.4-0.1,0.6-0.4,0.5-0.8c-0.1-0.4-0.4-0.6-0.8-0.5c0,0,0,0,0,0c-4,0.9-8.1-0.3-11.1-3.2l2.8-2.9c0.3-0.3,0.3-0.7,0-0.9
		s-0.7-0.3-0.9,0l-5.4,5.4c-2.3,2.3-6,2.5-8.5,0.4l13.1-13.1l0,0C44.1,26,46.6,25.4,48.9,26.2L48.9,26.2z M22.1,55.3
		c-1.2,0-2.2-1-2.2-2.2c0-1.2,1-2.2,2.2-2.2c1.2,0,2.2,1,2.2,2.2c0,0,0,0,0,0c0,0.6-0.2,1.1-0.6,1.5l0,0
		C23.3,55.1,22.7,55.3,22.1,55.3z M24,57.1c0-0.6,0.2-1.1,0.6-1.5l0,0c0.4-0.4,0.9-0.6,1.5-0.6c1.2,0,2.2,1,2.2,2.2
		c0,1.2-1,2.2-2.2,2.2C24.9,59.3,23.9,58.4,24,57.1C23.9,57.2,23.9,57.2,24,57.1L24,57.1z M28,61.1c0-1.2,1-2.2,2.2-2.2
		c1.2,0,2.2,1,2.2,2.2c0,1.2-1,2.2-2.2,2.2c0,0,0,0,0,0C28.9,63.3,28,62.3,28,61.1L28,61.1z M34.1,67.3c-1.2,0-2.2-1-2.2-2.2
		c0-1.2,1-2.2,2.2-2.2c1.2,0,2.2,1,2.2,2.2c0,0,0,0,0,0C36.3,66.4,35.4,67.3,34.1,67.3L34.1,67.3z M56.6,59c-0.9,0.8-2.2,0.8-3,0
		l0,0L40.8,46.1c-0.3-0.3-0.7-0.3-0.9,0s-0.3,0.7,0,0.9l13.7,13.8c0.4,0.4,0.6,1,0.6,1.5c0,0.6-0.2,1.1-0.6,1.5
		c-0.9,0.8-2.2,0.8-3,0l-1.8-1.8l0,0L48.7,62L36.8,50.1c-0.3-0.3-0.7-0.3-0.9,0c-0.3,0.3-0.3,0.7,0,0.9l11.8,11.9l0.1,0.1
		c0.7,0.9,0.6,2.1-0.1,2.9c-0.9,0.8-2.2,0.8-3.1,0l-3.3-3.3l-0.1-0.1l-8.4-8.4c-0.3-0.3-0.7-0.3-0.9,0c-0.3,0.3-0.3,0.7,0,0.9
		l8.4,8.4l0.1,0.1c0.7,0.9,0.6,2.1-0.2,2.9c-0.8,0.7-1.9,0.8-2.8,0.2c0.8-1.8,0-3.8-1.7-4.6c-0.5-0.2-0.9-0.3-1.4-0.3
		c-0.2,0-0.4,0-0.6,0c0-0.2,0-0.4,0-0.6c0-1.9-1.6-3.5-3.5-3.5h0c-0.2,0-0.4,0-0.6,0c0-0.2,0-0.4,0-0.6c0-1.9-1.6-3.5-3.5-3.5
		c-0.2,0-0.4,0-0.5,0.1c0-0.2,0-0.4,0-0.6c0-1.9-1.6-3.5-3.5-3.5h0c-0.5,0-1,0.1-1.5,0.3l-1.2-1.2c-1-1-1.6-2.2-1.8-3.5
		c-0.5-3.2-1.9-6.1-4-8.5l13.2-13.2l1.3,1.3c2,2,4.8,3.2,7.6,3.2h4.7L27.8,40.3c-0.3,0.2-0.3,0.6,0,0.9c0,0,0,0,0,0
		c3,3,7.9,3,10.9,0l1.6-1.6l16.3,16.3C57.5,56.8,57.5,58.1,56.6,59C56.7,59,56.7,59,56.6,59z"></path>
	<path vector-effect="non-scaling-stroke" class="st0" d="M30.6,11.5c0.3,0.1,0.7,0.2,1,0.2c0.3,0,0.6-0.1,0.9-0.1l2.8,5.4
		c0.1,0.2,0.3,0.4,0.6,0.4h11c0.3,0,0.5-0.1,0.6-0.4l2.8-5.4c0.3,0.1,0.6,0.1,0.9,0.1c0.3,0,0.7-0.1,1-0.2C54,11,55,9.1,54.5,7.4
		c-0.6-1.8-2.4-2.7-4.2-2.2s-2.7,2.4-2.2,4.2c0.2,0.6,0.6,1.2,1.1,1.6L46.5,16h-4.4V8.1c1.8-0.4,3-2.1,2.6-3.9
		c-0.1-0.6-0.4-1.2-0.9-1.7c-1.3-1.3-3.4-1.3-4.7,0c-1.3,1.3-1.3,3.4,0,4.7c0.5,0.5,1.1,0.8,1.7,0.9v8h-4.4L33.7,11
		c0.5-0.4,0.9-1,1.1-1.6C35,8.6,35,7.7,34.6,6.9c-0.8-1.6-2.8-2.3-4.5-1.5c0,0,0,0,0,0c-0.8,0.4-1.4,1.1-1.6,1.9
		C27.9,9.1,28.9,11,30.6,11.5z M50.7,6.4L50.7,6.4c0.2-0.1,0.4-0.1,0.6-0.1c0.3,0,0.6,0.1,0.9,0.2c0.5,0.2,0.8,0.7,1,1.2
		c0.3,1.1-0.3,2.2-1.3,2.5c-0.5,0.2-1,0.1-1.5-0.1l0,0c-1-0.5-1.4-1.7-0.8-2.7C49.8,7,50.2,6.6,50.7,6.4z M39.4,4.7c0-1.1,0.9-2,2-2
		c1.1,0,2,0.9,2,2c0,0.5-0.2,1-0.6,1.4c-0.8,0.8-2,0.8-2.8,0C39.7,5.8,39.4,5.3,39.4,4.7z M29.7,7.8c0.2-0.5,0.5-0.9,1-1.2
		c0.3-0.2,0.6-0.2,0.9-0.2c0.2,0,0.4,0,0.6,0.1c0.5,0.2,0.9,0.5,1.2,1c0.2,0.5,0.3,1,0.1,1.5c-0.4,1-1.5,1.6-2.6,1.2
		C30,9.8,29.4,8.8,29.7,7.8z"></path>
	<path vector-effect="non-scaling-stroke" class="st0" d="M76.6,61.3c-0.6,0.3-1,0.8-1.3,1.3l-5.8-1.8c-0.2-0.1-0.5,0-0.7,0.2
		l-3.9,3.9l0,0l-3.9,3.9l0,0l-0.1,0.1V69c0,0,0,0.1,0,0.1c0,0,0,0.1,0,0.1v0.2l1.8,5.8c-0.6,0.3-1,0.8-1.3,1.3
		c-0.4,0.8-0.5,1.7-0.2,2.5c0.4,1.4,1.7,2.3,3.1,2.3c0.3,0,0.7-0.1,1-0.2c0.8-0.3,1.6-0.9,2-1.6c0.8-1.6,0.2-3.6-1.4-4.5
		c-0.6-0.3-1.2-0.4-1.9-0.4l-1.7-5.3l3.1-3.2l5.7,5.7c-1,1.5-0.6,3.6,0.9,4.7c1.5,1,3.6,0.6,4.7-0.9c1-1.5,0.6-3.6-0.9-4.7
		c-1.1-0.7-2.6-0.7-3.7,0l-5.7-5.7l3.1-3.2l5.4,1.7c-0.1,0.7,0.1,1.3,0.3,1.9c0.4,0.8,1.1,1.4,2,1.6c0.8,0.3,1.8,0.2,2.5-0.2
		c1.6-0.9,2.3-2.9,1.4-4.5C80.2,61,78.2,60.4,76.6,61.3L76.6,61.3z M75.7,73.7c0,1.1-0.9,2-2,2c-1.1,0-2-0.9-2-2c0-1.1,0.9-2,2-2
		C74.8,71.7,75.7,72.6,75.7,73.7z M65.1,76.4c1,0.5,1.3,1.7,0.9,2.7c-0.5,1-1.6,1.4-2.7,1c-1-0.5-1.4-1.7-1-2.7
		c0-0.1,0.1-0.1,0.1-0.2c0.2-0.5,0.7-0.8,1.2-1c0.2-0.1,0.4-0.1,0.6-0.1C64.5,76.2,64.8,76.2,65.1,76.4L65.1,76.4z M79,66
		c-1,0.5-2.2,0.1-2.7-0.9c-0.5-1-0.1-2.2,0.9-2.7c0.3-0.1,0.6-0.2,0.9-0.2c1.1,0,2,0.9,2,2C80.1,65,79.7,65.7,79,66L79,66z"></path>
	<path vector-effect="non-scaling-stroke" class="st0" d="M21.9,68.6l-7.7-7.7c-0.2-0.2-0.4-0.2-0.7-0.2l-5.8,1.8
		c-0.8-1.4-2.4-2.1-3.9-1.6c-0.8,0.3-1.6,0.9-2,1.6c-0.8,1.6-0.2,3.7,1.4,4.5c0,0,0,0,0,0c0.5,0.2,1,0.4,1.5,0.4
		c1.2,0,2.4-0.7,3-1.8c0.3-0.6,0.4-1.2,0.4-1.9l5.4-1.7l3.1,3.2L11,71c-1.5-1-3.6-0.6-4.7,0.9c-1,1.5-0.6,3.6,0.9,4.7
		c1.5,1,3.6,0.6,4.7-0.9c0.7-1.1,0.7-2.6,0-3.7l5.6-5.6l3.1,3.2l-1.7,5.3c-0.7-0.1-1.3,0.1-1.9,0.3c-1.6,0.8-2.3,2.8-1.5,4.5
		c0.6,1.2,1.8,1.9,3.1,1.9c1.8,0,3.3-1.5,3.4-3.3c0-1.2-0.7-2.4-1.7-3l1.8-5.8C22.2,69.1,22.1,68.8,21.9,68.6z M6.6,65.1
		c-0.5,1-1.7,1.4-2.7,0.9S2.5,64.3,3,63.3s1.7-1.4,2.7-0.9c0,0,0,0,0,0C6.7,63,7,64.2,6.6,65.1z M9.2,75.7c-1.1,0-2-0.9-2-2
		s0.9-2,2-2s2,0.9,2,2C11.2,74.8,10.3,75.7,9.2,75.7C9.2,75.7,9.2,75.7,9.2,75.7L9.2,75.7z M19.7,79.9c-1,0.5-2.2,0-2.7-1
		c-0.4-0.9-0.1-2.1,0.8-2.6c0.5-0.2,1-0.3,1.5-0.1l0,0c1.1,0.3,1.6,1.5,1.3,2.5C20.5,79.3,20.1,79.7,19.7,79.9z"></path>
</g>
</svg>