<?xml version="1.0" encoding="utf-8"?>
<!-- Generator: Adobe Illustrator 25.0.1, SVG Export Plug-In . SVG Version: 6.00 Build 0)  -->
<svg version="1.1" id="Layer_1_1569956248006" xmlns="http://www.w3.org/2000/svg" xmlns:xlink="http://www.w3.org/1999/xlink"
	 x="0px" y="0px" viewBox="0 0 80 80" style="enable-background:new 0 0 80 80;" xml:space="preserve">
<style type="text/css">
	.st0{fill:#C52228;}
</style>
<g transform="translate(1, 1)">
	<path vector-effect="non-scaling-stroke" class="st0" d="M38,61.3c-3,1.7-6.2,3-9.6,3.7C26.6,64.7,3.8,59.3,3.8,36V13.7
		c7.1,6.2,17.8,6,24.6-0.5c6.8,6.5,17.5,6.7,24.5,0.5v13c0,0.3,0.3,0.6,0.6,0.6s0.6-0.3,0.6-0.6V12.3c0-0.2-0.1-0.5-0.4-0.6
		c-0.2-0.1-0.5,0-0.7,0.1c-6.6,6.7-17.3,6.8-24,0.2c-0.1-0.1-0.2-0.2-0.2-0.2c-0.2-0.2-0.6-0.2-0.8,0c0,0,0,0,0,0
		c-6.5,6.7-17.3,6.9-24,0.3c-0.1-0.1-0.2-0.2-0.3-0.3c-0.2-0.2-0.5-0.3-0.7-0.1c-0.2,0.1-0.4,0.3-0.4,0.6V36
		c0,25.1,25.5,30.3,25.7,30.3h0.2c3.5-0.8,6.9-2.1,10.1-3.9c0.3-0.2,0.4-0.5,0.2-0.8C38.6,61.3,38.3,61.2,38,61.3
		C38,61.3,38,61.3,38,61.3z"/>
	<path vector-effect="non-scaling-stroke" class="st0" d="M48.1,26.7c0,0.3,0.3,0.6,0.6,0.6c0.3,0,0.6-0.3,0.6-0.6V21
		c0-0.2-0.1-0.4-0.3-0.5c-0.2-0.1-0.4-0.1-0.6-0.1C41.9,22.9,34.6,22,28.7,18c-0.2-0.1-0.5-0.1-0.7,0c-3.6,2.4-7.9,3.7-12.2,3.7
		c-2.6,0-5.1-0.4-7.5-1.3c-0.3-0.1-0.7,0-0.8,0.4c0,0.1,0,0.1,0,0.2v15c0,18.6,15.9,24.1,20.7,25.3h0.2h0.1c2.7-0.7,5.2-1.8,7.7-3.2
		c0.3-0.2,0.4-0.5,0.2-0.8c0,0,0,0,0,0c-0.2-0.3-0.5-0.4-0.8-0.2c-2.3,1.3-4.7,2.3-7.3,3C23.5,58.9,8.7,53.6,8.7,36V21.9
		c2.3,0.8,4.7,1.1,7.1,1.1c4.5,0,8.8-1.3,12.6-3.7C32.1,21.7,36.5,23,41,23c2.4,0,4.8-0.4,7.1-1.1L48.1,26.7z"/>
	<path vector-effect="non-scaling-stroke" class="st0" d="M74.8,43.2H69v-3.8c0-5.6-4.5-10.1-10.1-10.1c-5.6,0-10.1,4.5-10.1,10.1
		c0,0,0,0,0,0v3.8h-5.7c-0.3,0-0.6,0.3-0.6,0.6v21.8c0,0.3,0.3,0.6,0.6,0.6h31.6c0.3,0,0.6-0.3,0.6-0.6V43.8
		C75.4,43.5,75.1,43.2,74.8,43.2z M50,39.4c0-4.9,4-8.9,8.9-8.9s8.9,4,8.9,8.9c0,0,0,0,0,0v3.8H50V39.4z M74.2,65H43.7V44.4h30.4V65
		z"/>
	<path vector-effect="non-scaling-stroke" class="st0" d="M56.8,51c-1.1,1.1-1.2,2.9-0.2,4.1v5.3c0,0.3,0.3,0.6,0.6,0.6h3.4
		c0.3,0,0.6-0.3,0.6-0.6v-2c0-0.3-0.3-0.6-0.6-0.6c-0.3,0-0.6,0.3-0.6,0.6v1.4h-2.2v-5c0-0.2-0.1-0.3-0.2-0.4
		c-0.7-0.7-0.7-1.8,0-2.6c0,0,0,0,0,0c0.7-0.7,1.9-0.7,2.6,0c0.7,0.7,0.7,1.8,0,2.6c0,0,0,0,0,0c-0.1,0.1-0.2,0.3-0.2,0.4v1.3
		c0,0.3,0.3,0.6,0.6,0.6c0.3,0,0.6-0.3,0.6-0.6v-1c1-1.2,0.9-3-0.2-4.1C59.9,49.8,58,49.8,56.8,51z"/>
	<path vector-effect="non-scaling-stroke" class="st0" d="M33.3,33l-6.1,10.7L23.5,39c-0.2-0.3-0.6-0.3-0.8-0.2
		c-0.3,0.2-0.3,0.6-0.2,0.8c0,0,0,0,0,0.1l4.2,5.4c0.1,0.1,0.3,0.2,0.5,0.2l0,0c0.2,0,0.4-0.1,0.5-0.3l6.6-11.5
		c0.2-0.3,0.1-0.7-0.2-0.8C33.8,32.6,33.5,32.6,33.3,33C33.3,32.9,33.3,33,33.3,33L33.3,33z"/>
</g>
</svg>
