<svg version="1.2" xmlns="http://www.w3.org/2000/svg" xmlns:xlink="http://www.w3.org/1999/xlink" overflow="visible" preserveAspectRatio="none" viewBox="0 0 66 66" width="80" height="80"><g transform="translate(1, 1)"><defs><style>.cls-1{fill:#c52228;}</style></defs><g id="server_security"><path d="M58.06,11a.94.94,0,1,0-1.33,0A.94.94,0,0,0,58.06,11Z" class="cls-1" vector-effect="non-scaling-stroke"/><circle r="0.71" cy="10.32" cx="53.86" class="cls-1" vector-effect="non-scaling-stroke"/><path d="M61.7,15.67a.5.5,0,0,0,.47-.5V5.41a.47.47,0,0,0-.47-.48H29.48a.47.47,0,0,0-.47.48v9.76a.5.5,0,0,0,.47.5H43.24v5.19H29.48a.48.48,0,0,0-.47.48v3.32l.94.16v-3H61.23v8.81H40.59v.95h2.65v5.19H40.59v.93H61.23v8.83H39.06c-.13.31-.26.62-.4.93h23a.47.47,0,0,0,.47-.47V37.22a.47.47,0,0,0-.47-.46H48V31.57H61.7a.48.48,0,0,0,.47-.48V21.34a.48.48,0,0,0-.47-.48H48V15.67ZM47,36.76H44.17V31.57H47Zm0-15.9H44.17V15.67H47ZM30,14.69V5.91H61.23v8.78Z" class="cls-1" vector-effect="non-scaling-stroke"/><path d="M58.06,26.89a1,1,0,0,0,0-1.34.94.94,0,0,0-1.33,0,1,1,0,0,0,0,1.34A.94.94,0,0,0,58.06,26.89Z" class="cls-1" vector-effect="non-scaling-stroke"/><circle r="0.71" cy="26.22" cx="53.86" class="cls-1" vector-effect="non-scaling-stroke"/><path d="M58.06,42.78a.94.94,0,1,0-1.33,0A.94.94,0,0,0,58.06,42.78Z" class="cls-1" vector-effect="non-scaling-stroke"/><path d="M54.36,42.62a.73.73,0,0,0,0-1,.71.71,0,1,0,0,1Z" class="cls-1" vector-effect="non-scaling-stroke"/><path d="M24.54,36.93l-4.2,7.31L17.86,41a.42.42,0,0,0-.66.51l2.86,3.68a.4.4,0,0,0,.33.17h0a.4.4,0,0,0,.34-.2l4.51-7.84a.41.41,0,0,0-.15-.57A.42.42,0,0,0,24.54,36.93Z" class="cls-1" vector-effect="non-scaling-stroke"/><path d="M21.22,41.06Z" class="cls-1" vector-effect="non-scaling-stroke"/><path d="M39.38,23.94a.69.69,0,0,0-.47-.05,20.26,20.26,0,0,1-6.74,1.18A17.34,17.34,0,0,1,29,24.82L28,24.66a19.47,19.47,0,0,1-6.74-2.91s-.06-.05-.06-.05h0s0,.05,0,.05a19.56,19.56,0,0,1-10.9,3.32A20.2,20.2,0,0,1,3.5,23.89a1.12,1.12,0,0,0-.46.05.6.6,0,0,0-.25.46V37.8c0,16.45,14,21.38,18.41,22.52v0s0,0,0,0c3.38-.88,12.45-4,16.45-12.87.14-.31.27-.62.4-.93a23.93,23.93,0,0,0,1.53-8.72V24.4A.59.59,0,0,0,39.38,23.94ZM38.54,37.8a22.85,22.85,0,0,1-1.66,8.72c-.15.31-.27.62-.45.93-3.8,7.89-11.85,10.85-15.22,11.78h0C16.69,58,3.88,53.16,3.88,37.8V25.17a20.27,20.27,0,0,0,6.38,1,20.71,20.71,0,0,0,11-3.17A21,21,0,0,0,28,25.75l.94.15a21.75,21.75,0,0,0,3.22.27,20.29,20.29,0,0,0,6.37-1Z" class="cls-1" vector-effect="non-scaling-stroke"/><path d="M35.16,27.93a.42.42,0,0,0-.36-.05,14.82,14.82,0,0,1-5.18.93c-.21,0-.43,0-.67,0a7.5,7.5,0,0,1-.94-.05,15.16,15.16,0,0,1-6.76-2.45l0,0h0s0,0,0,0a15.09,15.09,0,0,1-8.36,2.55,14.88,14.88,0,0,1-5.19-.93.43.43,0,0,0-.36.05.49.49,0,0,0-.17.36V38.52A16.35,16.35,0,0,0,12.85,51.6a22.13,22.13,0,0,0,8.35,4.26h0c2.39-.62,8.51-2.71,11.84-8.41.19-.31.36-.62.52-.93a17.68,17.68,0,0,0,1.76-8V28.29A.46.46,0,0,0,35.16,27.93ZM34.5,38.52a16.76,16.76,0,0,1-1.87,8c-.17.31-.36.62-.56.93-3.14,5-8.52,6.9-10.86,7.57,0-.05,0-.05,0,0-3.46-1-13.29-4.66-13.29-16.5V28.86a15.54,15.54,0,0,0,4.89.78,16.13,16.13,0,0,0,8.41-2.44A16.1,16.1,0,0,0,28,29.54a6,6,0,0,0,.94.05c.24,0,.46.05.67.05a15.48,15.48,0,0,0,4.88-.78Z" class="cls-1" vector-effect="non-scaling-stroke"/><path d="M21.22,41.06h0Z" class="cls-1" vector-effect="non-scaling-stroke"/></g></g></svg>