<svg xmlns="http://www.w3.org/2000/svg" viewBox="0 0 39.21 59.09"><defs><style>.cls-1{fill:#ffffff;}</style></defs><g id="Layer_2" data-name="Layer 2"><g id="Layer_1-2" data-name="Layer 1"><g id="Group_44" data-name="Group 44"><g id="Group_38" data-name="Group 38"><g id="Group_27" data-name="Group 27"><g id="Group_26" data-name="Group 26"><g id="Group_24" data-name="Group 24"><path id="Path_45" data-name="Path 45" class="cls-1" d="M32.76,37a1,1,0,0,1-1-1v-3a1,1,0,0,1,1.95,0v3A1,1,0,0,1,32.76,37Z"/></g><g id="Group_25" data-name="Group 25"><path id="Path_46" data-name="Path 46" class="cls-1" d="M28.43,59.09a2.48,2.48,0,0,1-1.76-.73l-8.45-8.45a2.37,2.37,0,0,1-.38-2.51,1.89,1.89,0,0,1,1.75-1.24H22.8V40.9a1,1,0,0,1,1.95,0v7.2H19.66a.08.08,0,0,0,0,0,.64.64,0,0,0,0,.43L28.05,57a.55.55,0,0,0,.38.16A.51.51,0,0,0,28.8,57l8.42-8.45a.55.55,0,0,0,0-.38s-.06,0-.14,0H31.78V40a1,1,0,1,1,1.95,0v6.18H37.1A2,2,0,0,1,39,47.41a2.38,2.38,0,0,1-.43,2.5l-8.42,8.45a2.44,2.44,0,0,1-1.75.73Z"/></g></g></g><g id="Group_33" data-name="Group 33"><g id="Group_32" data-name="Group 32"><g id="Group_28" data-name="Group 28"><path id="Path_47" data-name="Path 47" class="cls-1" d="M7.91,17.92a1,1,0,0,1-1-1V14.71a1,1,0,0,1,1.94,0v2.23a1,1,0,0,1-1,1Z"/></g><g id="Group_29" data-name="Group 29"><path id="Path_48" data-name="Path 48" class="cls-1" d="M20,13.39a1,1,0,0,1-1-1v-2a1,1,0,0,1,1.95,0v2a1,1,0,0,1-1,1Z"/></g><g id="Group_30" data-name="Group 30"><path id="Path_49" data-name="Path 49" class="cls-1" d="M20,20.9a1,1,0,0,1-1-1V16.28a1,1,0,0,1,1.95,0v3.65a1,1,0,0,1-1,1Z"/></g><g id="Group_31" data-name="Group 31"><path id="Path_50" data-name="Path 50" class="cls-1" d="M14.16,45.23A3,3,0,0,1,12,44.36L.68,33a2.87,2.87,0,0,1-.44-3,2.21,2.21,0,0,1,2.05-1.46H6.94V20.67a1,1,0,0,1,1.94,0v9.81H2.29s-.14,0-.25.26a1.06,1.06,0,0,0,0,.89L13.41,43a1.06,1.06,0,0,0,.75.31h0A1,1,0,0,0,14.9,43L26.21,31.63a.93.93,0,0,0,.09-.87c-.06-.15-.16-.28-.49-.28H19v-7a1,1,0,0,1,1.95,0v5h4.87A2.39,2.39,0,0,1,28.1,30a2.87,2.87,0,0,1-.51,3L16.28,44.35a2.91,2.91,0,0,1-2.11.88Z"/></g></g></g><g id="Group_37" data-name="Group 37"><g id="Group_34" data-name="Group 34"><path id="Path_51" data-name="Path 51" class="cls-1" d="M14.16,26.32a1,1,0,0,1-1-1v-10a1,1,0,0,1,1.94,0v10A1,1,0,0,1,14.16,26.32Z"/></g><g id="Group_35" data-name="Group 35"><path id="Path_52" data-name="Path 52" class="cls-1" d="M14.16,12.41a1,1,0,0,1-1-1v-5a1,1,0,0,1,1.94,0v5A1,1,0,0,1,14.16,12.41Z"/></g><g id="Group_36" data-name="Group 36"><path id="Path_53" data-name="Path 53" class="cls-1" d="M14.16,3.54a1,1,0,0,1-1-1V1a1,1,0,1,1,1.94,0V2.56a1,1,0,0,1-1,1Z"/></g></g></g><g id="Group_43" data-name="Group 43"><g id="Group_42" data-name="Group 42"><g id="Group_39" data-name="Group 39"><path id="Path_54" data-name="Path 54" class="cls-1" d="M32.59,25.51A5.67,5.67,0,0,1,26.76,20a1,1,0,1,1,1.95,0,3.9,3.9,0,0,0,7.76,0c0-1.59-1.5-2.46-3.8-3.61l-1-.52c-2.18-1.09-4.89-2.44-4.89-5.35a5.84,5.84,0,0,1,11.66,0,1,1,0,0,1-1.95,0,3.9,3.9,0,0,0-7.76,0c0,1.59,1.51,2.46,3.81,3.61l1,.52c2.17,1.09,4.87,2.44,4.87,5.35A5.67,5.67,0,0,1,32.59,25.51Z"/></g><g id="Group_40" data-name="Group 40"><path id="Path_55" data-name="Path 55" class="cls-1" d="M32.57,7a1,1,0,0,1-1-1V2.81a1,1,0,0,1,1.95,0V6A1,1,0,0,1,32.57,7Z"/></g><g id="Group_41" data-name="Group 41"><path id="Path_56" data-name="Path 56" class="cls-1" d="M32.57,28.74a1,1,0,0,1-1-1h0v-3.2a1,1,0,0,1,1.95,0v3.2A1,1,0,0,1,32.57,28.74Z"/></g></g></g></g></g></g></svg>