<svg version="1.2" xmlns="http://www.w3.org/2000/svg" xmlns:xlink="http://www.w3.org/1999/xlink" overflow="visible" preserveAspectRatio="none" viewBox="0 0 66 66" id="Layer_1" width="80" height="80"><g transform="translate(1, 1)"><path style="fill:#c52228" d="M30.94,53.49H2.67V25.62h43v4.66a.5.5,0,0,0,.5.5.5.5,0,0,0,.5-.5V17.49a.5.5,0,0,0-.5-.5h-44a.5.5,0,0,0-.5.5V54a.5.5,0,0,0,.5.5H30.94a.5.5,0,0,0,.5-.5A.5.5,0,0,0,30.94,53.49ZM2.67,18h43v6.63h-43Z" vector-effect="non-scaling-stroke"/><path style="fill:#c52228" d="M4.53,20.58a1,1,0,0,0,0,1.42,1,1,0,0,0,1.41,0,1,1,0,0,0,0-1.42A1,1,0,0,0,4.53,20.58Z" vector-effect="non-scaling-stroke"/><path style="fill:#c52228" d="M8.46,20.76a.74.74,0,0,0,0,1.06.75.75,0,1,0,0-1.06Z" vector-effect="non-scaling-stroke"/><path style="fill:#c52228" d="M19.82,30.62H8.17a.5.5,0,0,0-.5.5V42.77a.5.5,0,0,0,.5.5H19.82a.5.5,0,0,0,.5-.5V31.12A.5.5,0,0,0,19.82,30.62Zm-.5,11.65H8.67V31.62H19.32Z" vector-effect="non-scaling-stroke"/><path style="fill:#c52228" d="M7.67,48.07a.5.5,0,0,0,.5.5H30.75a.51.51,0,0,0,.5-.5.5.5,0,0,0-.5-.5H8.17A.5.5,0,0,0,7.67,48.07Z" vector-effect="non-scaling-stroke"/><path style="fill:#c52228" d="M39,32a.51.51,0,0,0-.5-.5H25.83a.5.5,0,0,0-.5.5.5.5,0,0,0,.5.5H38.54A.5.5,0,0,0,39,32Z" vector-effect="non-scaling-stroke"/><path style="fill:#c52228" d="M25.83,36.88a.5.5,0,0,0-.5.5.5.5,0,0,0,.5.5H38.28a.51.51,0,0,0,.5-.5.5.5,0,0,0-.5-.5Z" vector-effect="non-scaling-stroke"/><path style="fill:#c52228" d="M32.67,42.27H25.83a.5.5,0,0,0-.5.5.5.5,0,0,0,.5.5h6.84a.5.5,0,0,0,.5-.5A.5.5,0,0,0,32.67,42.27Z" vector-effect="non-scaling-stroke"/><path style="fill:#c52228" d="M45.53,43a7.5,7.5,0,1,0,7.5,7.5A7.51,7.51,0,0,0,45.53,43Zm0,14a6.5,6.5,0,1,1,6.5-6.5A6.51,6.51,0,0,1,45.53,57Z" vector-effect="non-scaling-stroke"/><path style="fill:#c52228" d="M48.12,47.19l-2.34,2.34a1,1,0,0,0-1,.25,1,1,0,0,0,0,1.41,1,1,0,0,0,1.42,0,1,1,0,0,0,.24-.95l2.34-2.34a.5.5,0,0,0,0-.71A.5.5,0,0,0,48.12,47.19Z" vector-effect="non-scaling-stroke"/><path style="fill:#c52228" d="M60.83,52.6h-4A12.39,12.39,0,0,0,57,51h1a.51.51,0,0,0,.5-.5A.5.5,0,0,0,58,50H57a10.83,10.83,0,0,0-.15-1.42h3a.5.5,0,0,0,0-1H56.64a11.4,11.4,0,0,0-1.83-3.85l.45-.44a2.05,2.05,0,1,0-.71-.71l-.36.37A11.49,11.49,0,0,0,48,39.27V37.79h.5a.5.5,0,0,0,.5-.5v-3a.5.5,0,0,0-.5-.5h-6a.5.5,0,0,0-.5.5v3a.5.5,0,0,0,.5.5H43v1.48A11.5,11.5,0,1,0,55.49,56.21H57a.5.5,0,0,0,.5-.5.51.51,0,0,0-.5-.5H56a10.63,10.63,0,0,0,.59-1.61h4.24a.5.5,0,0,0,0-1ZM56.29,40.52a1,1,0,1,1-.72,1.75h0a1,1,0,0,1,.73-1.74ZM43,34.79h5v2H43Zm4,3V39H44V37.79ZM45.53,61A10.5,10.5,0,1,1,56,50.49,10.51,10.51,0,0,1,45.53,61Z" vector-effect="non-scaling-stroke"/><path style="fill:#c52228" d="M59.49,50.49a.5.5,0,0,0,.5.5h.7a.51.51,0,0,0,.5-.5.5.5,0,0,0-.5-.5H60A.5.5,0,0,0,59.49,50.49Z" vector-effect="non-scaling-stroke"/><path style="fill:#c52228" d="M62.19,47.71a.53.53,0,0,0-.71,0,.51.51,0,0,0-.15.36.65.65,0,0,0,0,.19.53.53,0,0,0,.27.27.5.5,0,0,0,.39,0,.57.57,0,0,0,.16-.11.91.91,0,0,0,.11-.16.65.65,0,0,0,0-.19A.51.51,0,0,0,62.19,47.71Z" vector-effect="non-scaling-stroke"/><path style="fill:#c52228" d="M60,55.21H59a.5.5,0,0,0-.5.5.5.5,0,0,0,.5.5h1a.5.5,0,0,0,.5-.5A.51.51,0,0,0,60,55.21Z" vector-effect="non-scaling-stroke"/></g></svg>