<svg version="1.2" xmlns="http://www.w3.org/2000/svg" xmlns:xlink="http://www.w3.org/1999/xlink" overflow="visible" preserveAspectRatio="none" viewBox="0 0 66 66" id="Layer_1" width="80" height="80"><g transform="translate(1, 1)"><path style="fill:#c52228" d="M35.62,51.83H4L22,36.37a.55.55,0,0,0,.06-.78.55.55,0,0,0-.78-.06L3.06,51.17V18.62L27.92,37.38a.51.51,0,0,0,.66,0L53.44,18.62V35.91a.56.56,0,0,0,1.12,0V17.5a.14.14,0,0,0,0-.06.36.36,0,0,0,0-.11.31.31,0,0,0-.05-.1s0-.05,0-.06,0,0,0,0a.27.27,0,0,0-.08-.07.18.18,0,0,0-.09-.06.32.32,0,0,0-.09,0A.27.27,0,0,0,54,17H2.46a.23.23,0,0,0-.11,0,.16.16,0,0,0-.09,0,.18.18,0,0,0-.09.06.27.27,0,0,0-.08.07s0,0,0,0,0,0,0,.06a.31.31,0,0,0,0,.1.36.36,0,0,0,0,.11.14.14,0,0,0,0,.06V52.38s0,0,0,.08a.43.43,0,0,0,0,.11l.06.1a.25.25,0,0,0,0,.07v0a.71.71,0,0,0,.14.1l0,0a.54.54,0,0,0,.22,0H35.62a.56.56,0,0,0,.56-.56A.55.55,0,0,0,35.62,51.83ZM28.25,36.24,4.16,18.06H52.34Z" vector-effect="non-scaling-stroke"/><path style="fill:#c52228" d="M50.5,39A11.5,11.5,0,1,0,62,50.5,11.51,11.51,0,0,0,50.5,39Zm0,22A10.5,10.5,0,1,1,61,50.5,10.51,10.51,0,0,1,50.5,61Z" vector-effect="non-scaling-stroke"/><path style="fill:#c52228" d="M57.91,47.79a3.8,3.8,0,0,0-2.71-1.14h0a3.8,3.8,0,0,0-2.73,1.14l-.38.39a.53.53,0,0,0,.76.74l.38-.38a2.77,2.77,0,0,1,2-.82h0A2.78,2.78,0,0,1,58,50.5a2.7,2.7,0,0,1-.82,2,2.79,2.79,0,0,1-3.64.25l-.06,0a2.19,2.19,0,0,1-.23-.21l-2.34-2.34-2.34-2.34-.37-.32-.08-.06a3.88,3.88,0,0,0-5,.38,3.85,3.85,0,0,0,2.7,6.57h0a3.79,3.79,0,0,0,2.72-1.13l.39-.38a.53.53,0,0,0-.74-.76l-.4.38a2.77,2.77,0,0,1-2,.82h0a2.77,2.77,0,0,1-2-.82,2.76,2.76,0,0,1,0-3.92,2.79,2.79,0,0,1,3.64-.25l.06,0a2.19,2.19,0,0,1,.23.21l2.34,2.34,2.34,2.34.37.32.08.06a3.8,3.8,0,0,0,5-.38,3.84,3.84,0,0,0,0-5.43Z" vector-effect="non-scaling-stroke"/><path style="fill:#c52228" d="M34.35,35.66a.55.55,0,0,0,.06.78l4.87,4.15a.54.54,0,0,0,.78-.06.55.55,0,0,0-.06-.78L35.13,35.6A.55.55,0,0,0,34.35,35.66Z" vector-effect="non-scaling-stroke"/></g></svg>