<svg version="1.1" id="Layer_1" xmlns="http://www.w3.org/2000/svg" xmlns:xlink="http://www.w3.org/1999/xlink" x="0px" y="0px"
	 viewBox="0 0 64 64" style="enable-background:new 0 0 64 64;" xml:space="preserve">
<style type="text/css">
	.st0{fill:#21759B;}
	.st1{fill:#FFFFFF;}
</style>
<g>
	<circle class="st0" cx="32" cy="32" r="24"></circle>
	<path class="st1" d="M32,9.3c4.5,0,8.9,1.3,12.6,3.8c2.4,1.7,4.5,3.7,6,6c5.2,7.7,5.2,17.6,0,25.2c-1.7,2.4-3.7,4.5-6,6
		c-7.7,5.2-17.6,5.2-25.2,0c-2.4-1.7-4.5-3.7-6-6c-5.2-7.7-5.2-17.6,0-25.2c1.7-2.4,3.7-4.5,6-6C23.1,10.7,27.5,9.3,32,9.3"></path>
	<path class="st0" d="M12,32c0,7.7,4.4,14.7,11.2,18l-9.6-26.2C12.5,26.4,12,29.2,12,32z"></path>
	<path class="st0" d="M45.5,30.9c0-1.9-0.6-3.9-1.7-5.6c-1.1-1.7-1.9-3.1-1.9-4.7c0-1.8,1.4-3.5,3.4-3.6h0.2
		c-8.3-7.4-20.8-6.9-28.3,1.3c-0.8,0.8-1.4,1.7-1.9,2.5h1.3c2,0,5.4-0.2,5.4-0.2c0.5,0,0.9,0.4,0.9,0.9s-0.4,0.8-0.7,0.8
		c0,0-1.2,0.1-2.2,0.2L27,44.3l4.4-13.1l-3.1-8.5c-1.2,0-2-0.2-2-0.2c-0.5-0.1-0.8-0.6-0.7-1.1c0.1-0.5,0.5-0.7,0.8-0.7
		c0,0,3.3,0.2,5.3,0.2c1.9,0,5.4-0.2,5.4-0.2c0.5,0,0.9,0.5,0.8,0.9c0,0.5-0.4,0.8-0.7,0.8c0,0-1.2,0.1-2.2,0.2l7,21.5l2-6.5
		C44.9,35.5,45.2,33.2,45.5,30.9z"></path>
	<path class="st0" d="M32.3,33.8l-6,17.5c4,1.2,8.4,1.2,12.4-0.4c0-0.1-0.1-0.2-0.1-0.4L32.3,33.8z"></path>
	<path class="st0" d="M49.6,22.4c0.1,0.7,0.1,1.4,0.1,2c0,2.5-0.6,5-1.5,7.2l-6,17.7C51.5,43.8,54.8,31.9,49.6,22.4z"></path>
</g>
</svg>
