<svg version="1.2" xmlns="http://www.w3.org/2000/svg" xmlns:xlink="http://www.w3.org/1999/xlink" overflow="visible" preserveAspectRatio="none" viewBox="0 0 22 22" xml:space="preserve" y="0px" x="0px" id="Layer_1_1574776134025" width="20" height="20"><g transform="translate(1, 1)"><style type="text/css">
	.st0_1574776134025{fill:#C52228;}
</style><path d="M10,0.5c-5.2,0-9.5,4.3-9.5,9.5s4.3,9.5,9.5,9.5s9.5-4.3,9.5-9.5S15.2,0.5,10,0.5z M10,18.3  c-1-0.8-1.8-1.8-2.4-2.8h4.8C11.8,16.5,11,17.5,10,18.3z M7.1,14.5c-0.6-1.3-0.9-2.6-1-4h7.7c-0.1,1.4-0.4,2.7-1,4H7.1z M1.5,10.5  h3.6c0.1,1.4,0.4,2.7,0.9,4H2.8C2.1,13.3,1.6,12,1.5,10.5z M10,1.8c0.9,0.8,1.7,1.7,2.3,2.7H7.7C8.3,3.5,9.1,2.6,10,1.8z M12.8,5.5  c0.6,1.3,1,2.6,1,4H6.1c0.1-1.4,0.4-2.7,1-4H12.8z M5.1,9.5H1.5c0.1-1.5,0.5-2.8,1.3-4h3.3C5.5,6.8,5.2,8.1,5.1,9.5z M14.9,10.5h3.6  c-0.1,1.5-0.5,2.8-1.3,4H14C14.5,13.2,14.8,11.9,14.9,10.5z M14.9,9.5c-0.1-1.4-0.4-2.7-0.9-4h3.3c0.7,1.2,1.2,2.5,1.3,4H14.9z   M16.5,4.5h-3c-0.6-1.1-1.3-2-2.2-2.9C13.3,1.9,15.2,3,16.5,4.5z M8.8,1.6C7.9,2.5,7.2,3.4,6.6,4.5h-3C4.8,3,6.7,1.9,8.8,1.6z   M3.5,15.5h2.9c0.6,1,1.3,2,2.1,2.9C6.6,18,4.8,17,3.5,15.5z M11.4,18.4c0.9-0.9,1.6-1.8,2.1-2.9h3C15.2,17,13.4,18,11.4,18.4z" class="st0_1574776134025" vector-effect="non-scaling-stroke"/></g></svg>