<svg width="21" height="21" viewBox="0 0 21 21" fill="none" xmlns="http://www.w3.org/2000/svg">
<path d="M20.7908 6.68106C20.7908 6.68106 20.5857 5.2332 19.9541 4.59746C19.1543 3.76074 18.2602 3.75664 17.85 3.70742C14.9133 3.49414 10.5041 3.49414 10.5041 3.49414H10.4959C10.4959 3.49414 6.08672 3.49414 3.15 3.70742C2.73984 3.75664 1.8457 3.76074 1.0459 4.59746C0.414258 5.2332 0.213281 6.68106 0.213281 6.68106C0.213281 6.68106 0 8.38321 0 10.0813V11.6727C0 13.3707 0.20918 15.0729 0.20918 15.0729C0.20918 15.0729 0.414258 16.5207 1.0418 17.1565C1.8416 17.9932 2.8916 17.9645 3.35918 18.0547C5.04082 18.2147 10.5 18.2639 10.5 18.2639C10.5 18.2639 14.9133 18.2557 17.85 18.0465C18.2602 17.9973 19.1543 17.9932 19.9541 17.1565C20.5857 16.5207 20.7908 15.0729 20.7908 15.0729C20.7908 15.0729 21 13.3748 21 11.6727V10.0813C21 8.38321 20.7908 6.68106 20.7908 6.68106ZM8.33027 13.6045V7.70235L14.0027 10.6637L8.33027 13.6045Z" fill="#67788A"/>
</svg>
